<svg xmlns="http://www.w3.org/2000/svg" width="793.9" height="1122.3" baseProfile="full" viewBox="0 0 2977.2 4208.5"><title>part_2928932_690b5f9f0df18 (5)</title><desc>Generated by MuseScore Studio 4.5.2</desc><path fill="#fff" fill-rule="evenodd" d="M0 0h2977.2v4208.5H0z"/><path fill="none" stroke="#000" stroke-linejoin="bevel" stroke-width="2.7" d="M212.6 386.2h2552M212.6 411h2552M212.6 435.8h2552M212.6 460.6h2552M212.6 485.4h2552M212.6 646.7h2552M212.6 671.5h2552M212.6 696.3h2552M212.6 721.1h2552M212.6 745.9h2552M212.6 1152.2h2552M212.6 1177h2552M212.6 1201.8h2552M212.6 1226.6h2552M212.6 1251.4h2552M212.6 1412.6h2552M212.6 1437.4h2552M212.6 1462.2h2552M212.6 1487h2552M212.6 1511.8h2552M212.6 1918.2h2552M212.6 1943h2552M212.6 1967.8h2552M212.6 1992.6h2552M212.6 2017.4h2552M212.6 2191.1h2552M212.6 2215.9h2552M212.6 2240.7h2552M212.6 2265.5h2552M212.6 2290.3h2552M212.6 2696.6h2552M212.6 2721.4h2552M212.6 2746.2h2552M212.6 2771.1h2552M212.6 2795.9h2552M212.6 2957.1h2552M212.6 2981.9h2552M212.6 3006.7h2552M212.6 3031.5h2552M212.6 3056.3h2552M212.6 3462.6h2552M212.6 3487.4h2552M212.6 3512.2h2552M212.6 3537h2552M212.6 3561.8h2552M212.6 3723h2552M212.6 3747.8h2552M212.6 3772.7h2552M212.6 3797.5h2552M212.6 3822.3h2552" class="StaffLines"/><path d="M218 323.2c.6-3.5 1.4-5.7 3-8.4q2.6-4.7 6.3-4.7 1.9 0 2 1.2 0 .3-.4 1-.5.9-.5 1.7.2 2 2.3 2.2 2.6-.1 2.8-3c0-2.7-2.6-4.7-6.2-4.7-8.9 0-14.3 11.6-14.3 19.3 0 5.9 3 9.4 7.8 9.4 6 0 10.5-5 10.5-10.8 0-4.1-2.8-7-6.8-7q-4.2 0-6.6 3.8m5.3-1.4q3.8 0 3.9 4.8c0 5-2.7 9-6.3 9-2.5 0-4-2-4-5.1 0-5 2.7-8.7 6.4-8.7m24.2.3c2-.6 2.7-1 3.6-1.6 2-1.2 3-3.4 3-5.7 0-3.8-3-6.3-7.4-6.3s-8 2.7-8 6q.2 2.6 2.4 2.7 2.1-.2 2.3-2.3 0-.8-.8-1.8-.6-.5-.6-.9c0-1 2-2 3.9-2q4.2.1 4.3 4c0 3.6-2.5 7-5.2 7l-1-.1-1.3-.1q-1.4 0-1.4 1.1 0 1 1.1 1h.8q1-.2 1.6-.2c1.9 0 3.1 1.7 3.1 4.2 0 4.3-2 8.4-7 8.4-2.2 0-4-1-4-2.4q-.2-.5.7-.8 1.7-.8 1.6-2.4-.1-2.2-2.5-2.4-2.7.1-2.8 3.4c0 3.9 3 6.3 7.7 6.3 6 0 10.6-4 10.6-9.4 0-3.1-1.9-4.9-4.7-5.7M233 2618.9a66 66 0 0 1-10.8.3l-4-.3h-1l-3.8 8.4 1.4.5 1-1.6c1.9-3.1 2.8-3.6 6.8-3.5h6.8l-4.4 6.2c-5 7.2-5 7.2-7 10.4q-2.6 4-2.5 6 .1 2.2 2.3 2.3 2 .1 2.7-2.6c2-7.5 3.2-10.1 8.8-19l3.7-6zm18.2-.2H250c-2.2 1.7-6.4 3-9.3 3l-.5 1.8h2.8c2.4 0 2.7 0 2.7.8l-.4 1.8-4.3 16c-.5 2-.5 2.1-.9 2.5s-1.2.5-3.3.6H235l-.2 1.8h14.8l.3-1.8h-2.2c-2.6 0-3.1-.2-3.1-1.1l.3-2zM218 1855.2a25 25 0 0 1 3-8.4q2.6-4.8 6.3-4.8 1.9 0 2 1.2 0 .4-.4 1-.5.9-.5 1.8.2 2 2.3 2.1 2.6-.2 2.8-3c0-2.7-2.6-4.7-6.2-4.7-8.9 0-14.3 11.6-14.3 19.3 0 5.9 3 9.5 7.8 9.5 6 0 10.5-5 10.5-10.9 0-4-2.8-6.9-6.8-6.9q-4.2 0-6.6 3.8m5.3-1.5q3.8 0 3.9 4.8c0 5.1-2.7 9-6.3 9q-3.9-.2-4-5c0-5 2.7-8.8 6.4-8.8m33-13.3a69 69 0 0 1-10.7.3l-4-.3h-1l-3.9 8.4 1.5.5 1-1.6c1.8-3.1 2.7-3.5 6.8-3.5h6.7l-4.3 6.2c-5.2 7.2-5.2 7.2-7.1 10.4-1.8 2.9-2.5 4.6-2.5 6q.1 2.3 2.3 2.4 2 0 2.8-2.7c2-7.5 3.2-10 8.7-19l3.8-5.9zM218 1089.2a25 25 0 0 1 3-8.4q2.6-4.8 6.3-4.8 1.9 0 2 1.3 0 .3-.4 1-.5.8-.5 1.7.2 2 2.3 2.2c1.6 0 2.8-1.3 2.8-3 0-2.8-2.6-4.8-6.2-4.8-8.9 0-14.3 11.7-14.3 19.3 0 6 3 9.5 7.8 9.5 6 0 10.5-5 10.5-10.9 0-4-2.8-6.9-6.8-6.9q-4.2 0-6.6 3.8m5.3-1.5q3.8.1 3.9 4.9c0 5-2.7 9-6.3 9-2.5 0-4-2-4-5.1 0-5 2.7-8.8 6.4-8.8m15.1-.4q-1.7 1-1.6 2 .1 1.3 1.4 1.3 1.6 0 1.8-2.2 1.8-1.5 4.2-1.5 4.5.1 4.6 5.2c0 5.2-3.4 9.4-7.5 9.4-2.4 0-4.3-1-4.3-2.4q0-.3.2-.4c1.3-.6 2.4-1 2.4-2.8q-.1-2-2.4-2.2c-1.8 0-3.1 1.5-3.1 3.4 0 3.5 3 6 7.3 6 6.5 0 11.7-5 11.7-11.5 0-4-3-6.9-7.4-6.9q-2.3 0-5 1.4l2.2-7.6q3.1.7 5.2.7 4.2-.1 6.3-2.3 1-1.2 1.1-2 0-.4-.3-.5l-.4.2q-2 1-4.6 1-3.6 0-8.1-1.2zM233 3384.8a66 66 0 0 1-10.8.3l-4-.2h-1l-3.8 8.4 1.4.5 1-1.6c1.9-3.1 2.8-3.6 6.8-3.6h6.8l-4.4 6.3c-5 7.2-5 7.2-7 10.4q-2.6 4-2.5 6 .1 2.2 2.3 2.3 2 .1 2.7-2.6c2-7.5 3.2-10.1 8.8-19.1l3.7-5.8zm6.1 14.8c.7-3.5 1.5-5.7 3-8.4q2.8-4.7 6.4-4.8 2 0 2 1.3.1.3-.4 1-.5.8-.5 1.7.2 2 2.3 2.2 2.7-.1 2.8-3c0-2.8-2.6-4.8-6.1-4.8-9 0-14.3 11.7-14.3 19.4 0 5.9 2.9 9.4 7.8 9.4 6 0 10.4-5 10.4-10.8 0-4.1-2.7-7-6.7-7q-4.2 0-6.7 3.8m5.4-1.4q3.8 0 3.8 4.8c0 5-2.7 9-6.2 9-2.6 0-4.1-2-4.1-5.1 0-5 2.8-8.7 6.5-8.7" class="MeasureNumber"/><path fill-rule="evenodd" stroke="#000" stroke-linecap="round" stroke-linejoin="round" stroke-width="1.2" d="M1964.5 2296.4c20.7 16.7 82.6 16.7 103.2 0-20.6 24.6-82.5 24.6-103.2 0" class="TieSegment"/><path fill="none" stroke="#000" stroke-linejoin="bevel" stroke-width="4.5" d="M2762.4 2695.3v261.8M1338.3 2695.3v261.8M2018.5 1916.8v274.3M2234.9 1916.8v274.3" class="BarLine"/><path d="M1209.9 1955.4c0-3-2.3-5.3-5.2-5.3a5 5 0 0 0-5.1 5.3c0 2.8 2.3 5.2 5.1 5.2 3 0 5.2-2.4 5.2-5.2M1209.9 1980.2c0-3-2.3-5.3-5.2-5.3a5 5 0 0 0-5.1 5.3c0 2.9 2.3 5.2 5.1 5.2 3 0 5.2-2.3 5.2-5.2" class="BarLine"/><path fill="none" stroke="#000" stroke-linejoin="bevel" stroke-width="4.5" d="M1221.3 1916.8v274.3" class="BarLine"/><path fill="none" stroke="#000" stroke-linejoin="bevel" stroke-width="13.6" d="M1239.5 1916.8v274.3" class="BarLine"/><path fill="none" stroke="#000" stroke-linejoin="bevel" stroke-width="4.5" d="M1780.5 2695.3v261.8M2762.4 384.9v261.8M214.8 1916.8v274.3M2293.8 2695.3v261.8M2762.4 1916.8v274.3M896.1 2695.3v261.8M2762.4 1150.8v261.8M214.8 384.9v261.8" class="BarLine"/><path fill="none" stroke="#000" stroke-linejoin="bevel" stroke-width="13.6" d="M1594.9 384.9v261.8" class="BarLine"/><path fill="none" stroke="#000" stroke-linejoin="bevel" stroke-width="4.5" d="M1613.2 384.9v261.8" class="BarLine"/><path d="M1634.9 423.4c0-2.9-2.3-5.2-5.2-5.2a5 5 0 0 0-5.1 5.2c0 3 2.2 5.3 5.1 5.3s5.2-2.4 5.2-5.3M1634.9 448.2c0-2.9-2.3-5.2-5.2-5.2a5 5 0 0 0-5.1 5.2c0 3 2.2 5.3 5.1 5.3s5.2-2.4 5.2-5.3" class="BarLine"/><path fill="none" stroke="#000" stroke-linejoin="bevel" stroke-width="4.5" d="M214.8 1150.8v261.8M214.8 3461.2V3723M214.8 2695.3v261.8M1619.7 3461.2V3723M1594.9 1150.8v261.8" class="BarLine"/><path d="M1565.3 423.4c0-2.9-2.3-5.2-5.2-5.2a5 5 0 0 0-5.1 5.2c0 3 2.3 5.3 5.1 5.3 3 0 5.2-2.4 5.2-5.3M1565.3 448.2c0-2.9-2.3-5.2-5.2-5.2a5 5 0 0 0-5.1 5.2c0 3 2.3 5.3 5.1 5.3 3 0 5.2-2.4 5.2-5.3" class="BarLine"/><path fill="none" stroke="#000" stroke-linejoin="bevel" stroke-width="4.5" d="M1576.7 384.9v261.8" class="BarLine"/><path fill="none" stroke="#000" stroke-linejoin="bevel" stroke-width="13.6" d="M1594.9 384.9v261.8" class="BarLine"/><path fill="none" stroke="#000" stroke-linejoin="bevel" stroke-width="4.5" d="M2739.6 3461.2V3723" class="BarLine"/><path fill="none" stroke="#000" stroke-linejoin="bevel" stroke-width="13.6" d="M2757.8 3461.2V3723" class="BarLine"/><path fill="none" stroke="#000" stroke-linejoin="bevel" stroke-width="4.5" d="M2018.5 2189.7v102M2762.4 2189.7v102M2234.9 2189.7v102" class="BarLine"/><path d="M1209.9 2228.3c0-2.9-2.3-5.3-5.2-5.3a5 5 0 0 0-5.1 5.3c0 2.9 2.3 5.3 5.1 5.3 3 0 5.2-2.4 5.2-5.3M1209.9 2253.1c0-2.9-2.3-5.2-5.2-5.2a5 5 0 0 0-5.1 5.2c0 2.9 2.3 5.3 5.1 5.3 3 0 5.2-2.4 5.2-5.3" class="BarLine"/><path fill="none" stroke="#000" stroke-linejoin="bevel" stroke-width="4.5" d="M1221.3 2189.7v102" class="BarLine"/><path fill="none" stroke="#000" stroke-linejoin="bevel" stroke-width="13.6" d="M1239.5 2189.7v102" class="BarLine"/><path fill="none" stroke="#000" stroke-linejoin="bevel" stroke-width="4.5" d="M214.8 2189.7v102" class="BarLine"/><path fill="none" stroke="#000" stroke-linejoin="bevel" stroke-width="13.6" d="M1594.9 645.3v101.9" class="BarLine"/><path fill="none" stroke="#000" stroke-linejoin="bevel" stroke-width="4.5" d="M1613.2 645.3v101.9" class="BarLine"/><path d="M1634.9 683.9c0-3-2.3-5.3-5.2-5.3a5 5 0 0 0-5.1 5.3c0 2.8 2.2 5.2 5.1 5.2s5.2-2.4 5.2-5.2M1634.9 708.7c0-3-2.3-5.3-5.2-5.3a5 5 0 0 0-5.1 5.3c0 2.8 2.2 5.2 5.1 5.2s5.2-2.4 5.2-5.2" class="BarLine"/><path fill="none" stroke="#000" stroke-linejoin="bevel" stroke-width="4.5" d="M2762.4 1411.3v101.9M2762.4 645.3v101.9M214.8 1411.3v101.9M1594.9 1411.3v101.9" class="BarLine"/><path d="M1565.3 683.9c0-3-2.3-5.3-5.2-5.3a5 5 0 0 0-5.1 5.3c0 2.8 2.3 5.2 5.1 5.2 3 0 5.2-2.4 5.2-5.2M1565.3 708.7c0-3-2.3-5.3-5.2-5.3a5 5 0 0 0-5.1 5.3c0 2.8 2.3 5.2 5.1 5.2 3 0 5.2-2.4 5.2-5.2" class="BarLine"/><path fill="none" stroke="#000" stroke-linejoin="bevel" stroke-width="4.5" d="M1576.7 645.3v101.9" class="BarLine"/><path fill="none" stroke="#000" stroke-linejoin="bevel" stroke-width="13.6" d="M1594.9 645.3v101.9" class="BarLine"/><path fill="none" stroke="#000" stroke-linejoin="bevel" stroke-width="4.5" d="M214.8 2955.7v102M896.1 2955.7v102M2293.8 2955.7v102M214.8 3721.7v101.9M1619.7 3721.7v101.9M214.8 645.3v101.9M1780.5 2955.7v102M2762.4 2955.7v102M1338.3 2955.7v102M2739.6 3721.7v101.9" class="BarLine"/><path fill="none" stroke="#000" stroke-linejoin="bevel" stroke-width="13.6" d="M2757.8 3721.7v101.9" class="BarLine"/><path fill="none" stroke="#000" stroke-linejoin="bevel" stroke-width="4" d="M1018.5 1102.6h48.6M947.8 1127.4h48.6M1999.3 361.4h48.6M988.1 1868.6h48.6M2136 361.4h48.6M806.3 1127.4h48.6M735.5 1127.4h48.6M735.5 1102.6h48.6M664.8 1127.4h48.6M523.3 1127.4h48.6M2204.3 336.6h48.6M2204.3 361.4h48.6M2272.6 361.4h48.6M452.5 1127.4h48.6M452.5 1102.6h48.6M2409.3 361.4h48.6M2477.6 336.6h48.6M2477.6 361.4h48.6M2545.9 361.4h48.6M2682.6 361.4h48.6M2469 1102.6h48.6M1626.2 1893.4h48.6M1626.2 1868.6h48.6M1447.7 1893.4h48.6M1269.2 1893.4h48.6M1269.2 1868.6h48.6M988.1 1893.4h48.6M809.5 1893.4h48.6M809.5 1868.6h48.6M631 1893.4h48.6M452.5 1893.4h48.6M452.5 1868.6h48.6M2469 1127.4h48.6M1018.5 1127.4h48.6M2186 1127.4h48.6M2186 1102.6h48.6M1903 1127.4h48.6M1903 1102.6h48.6M1620 1127.4h48.6M1620 1102.6h48.6M1513.8 1127.4h48.6M1372.3 1127.4h48.6M1301.5 1127.4h48.6M1301.5 1102.6h48.6M1230.8 1127.4h48.6M1089.3 1127.4h48.6M452.5 336.6h48.6M1657.7 361.4h48.6M1657.7 336.6h48.6M1862.7 361.4h48.6M725.8 361.4h48.6M1272.4 336.6h48.6M1726 361.4h48.6M1272.4 361.4h48.6M1931 361.4h48.6M452.5 361.4h48.6M999.1 336.6h48.6M999.1 361.4h48.6M1931 336.6h48.6M2682.6 2907.5h48.6M1908.5 2932.3h48.6M999.1 770.7h48.6M1853.7 2932.3h48.6M2627.8 2932.3h48.6M2627.8 2907.5h48.6M2627.8 2882.7h48.6M1908.5 2907.5h48.6M2512.3 3698.2h48.6M1269.2 2315.1h48.6M2682.6 2932.3h48.6M1447.7 2315.1h48.6M1320.1 3698.2h48.6M1320.1 3673.4h48.6M1652.4 2932.3h48.6M452.5 770.7h48.6M1626.2 2315.1h48.6M1652.4 2907.5h48.6M1933.9 3698.2h48.6M1804.7 2315.1h48.6M1933.9 3673.4h48.6M2469 1536.6h48.6M2421.8 2907.5h48.6M2421.8 2932.3h48.6M2421.8 2882.7h48.6M1903 1536.6h48.6M1903 1561.4h48.6M1620 1561.4h48.6M1620 1536.6h48.6M2367 2932.3h48.6M2476.6 2907.5h48.6M2367 2907.5h48.6M2186 1536.6h48.6M2476.6 2932.3h48.6M2186 1561.4h48.6M1963.3 2932.3h48.6M2469 1561.4h48.6M2512.3 3673.4h48.6M2169.3 2932.3h48.6M2114.5 2932.3h48.6M2114.5 2907.5h48.6M452.5 2315.1h48.6M2573 2907.5h48.6M2059.7 2932.3h48.6M2573 2932.3h48.6M631 2315.1h48.6M1017.5 2932.3h48.6M809.5 2315.1h48.6M761.5 2907.5h48.6M2367.7 2141.5h48.6M2367.7 2166.3h48.6M2422.5 2166.3h48.6M555.5 2882.7h48.6M610.3 2932.3h48.6M816.3 2907.5h48.6M761.5 2932.3h48.6M741.7 3673.4h48.6M2583.1 2166.3h48.6M761.5 2882.7h48.6M2583.1 2141.5h48.6M706.7 2932.3h48.6M555.5 2907.5h48.6M610.3 2907.5h48.6M555.5 2932.3h48.6M2528.3 2166.3h48.6M2312.9 2166.3h48.6M725.8 770.7h48.6M1459.7 2907.5h48.6M1459.7 2932.3h48.6M706.7 2907.5h48.6M816.3 2932.3h48.6M741.7 3698.2h48.6M500.7 2932.3h48.6M1210.3 2932.3h48.6M2637.9 2166.3h48.6M1017.5 2907.5h48.6M1210.3 2907.5h48.6M500.7 2907.5h48.6" class="LedgerLine"/><path fill="none" stroke="#000" stroke-linejoin="bevel" stroke-width="2.5" d="M2690.7 1144v126M2223.3 2750.4v82.7M2328.2 2738v76.5M1281.8 328.4v157M1213.5 390.4v95M2178.7 2762.8v70.3M461.9 1872.7v144.7M564.9 2738v76.5M1219.7 2738v76.5M506.6 1922.3v95.1M2123.9 2738v95.1M551.2 1947.1v70.3M595.8 1922.3v95.1M2053.9 1193.6v76.4M1329.5 3504v76.4M1841.7 1144v126M1027 2738v76.5M1912.4 1106.8V1270M1350.1 390.4v95M1654.1 3504v76.4M930.6 2738v76.5M1123.3 2725.6v82.7M2521.7 3491.6v82.6M1983.2 1144v126M2431.2 2738v76.5M2619.9 1193.6v76.4M2124.7 1144v126M2195.4 1094.4V1270M770.9 2738v76.5M2266.2 1144v126M2336.9 1193.6v76.4M2407.7 1144v126M1145.2 415.2v70.2M2478.4 1106.8V1270M667.9 2725.6v82.7M2549.2 1144v126M598.6 415.2v70.2M2377.1 1959.5v76.5M1323.2 1922.3v95.1M1367.9 1947.1v70.3M1815 2738v76.5M1412.5 1922.3v95.1M1457.1 1885.1v132.3M2484.8 1947.1v82.7M666.9 390.4v95M1501.7 1922.3v95.1M461.9 340.8v144.6M1546.4 1947.1v70.3M1591 1922.3v95.1M1635.6 1872.7v138.5M2592.5 1959.5v95.1M1469.1 2750.4v70.3M2269.4 1959.5v76.5M1680.3 1922.3v91M1724.9 1934.7v80.6M1769.5 1947.1v70.2M1661.9 2750.4v70.3M1843.9 1951.4v-70.3M940.2 390.4v95M1595.2 2754.7V2678M1888.5 1963.8v-76.6M1008.5 340.8v144.6M1933.2 1976.2v-82.9M952.9 1922.3v95.1M640.5 1885.1v132.3M685.1 1922.3v95.1M729.7 1947.1v70.3M774.3 1922.3v95.1M819 1872.7v144.7M1977.8 1988.6v-89.2M2020.9 2725.6v82.7M803.6 390.4v95M735.2 353.2v132.2M1943.3 3516.4v70.2M863.6 1922.3v95.1M908.2 1947.1v70.3M461.9 2738v76.5M871.9 415.2v70.2M997.5 1860.3v157.1M2692 1971.9v82.7M2232.5 3504v76.4M1042.1 1922.3v95.1M1086.8 1947.1v70.3M1917.9 2738v76.5M2647.3 1984.3v70.3M1131.4 1922.3v95.1M1076.8 390.4v95M1372.8 2738v76.5M1278.6 1872.7v144.7M751.1 3504v76.4M461.9 1106.8V1270M1629.4 1106.8V1270M1418.5 415.2v70.2M2077.1 427.6V504M2487 340.8V504M815.7 1131.6V1270M532.7 1131.6V1270M1735.4 365.6V504M957.2 1131.6V1270M1310.9 1106.8V1270M2692 365.6V504M1040.3 3491.6v82.6M1169.4 1193.6v76.4M1240.2 1131.6V1270M674.2 1131.6V1270M1452.4 1193.6v76.4M2145.4 365.6V504M603.4 1193.6v76.4M1523.2 1131.6V1270M2282 365.6V504M886.4 1193.6v76.4M2534.2 2725.6v82.7M530.3 390.4v95M2623.7 427.6V504M1027.9 1094.4V1270M1700.2 1144v126M2637.2 2738v76.5M1803.8 427.6V504M1098.7 1131.6V1270M1940.4 340.8V504M1381.7 1131.6V1270M744.9 1106.8V1270M1872.1 365.6V504M1667.1 340.8V504M2555.3 365.6V504M461.9 3504v76.4M2418.7 365.6V504M1486.8 390.4v95M2008.7 365.6V504M1770.9 1193.6v76.4M2350.4 427.6V504M2213.7 328.4V504M2585.1 704.7V572.2M1863.1 2936.4v118M2537.7 2170.5v117.8M1372.8 3010.8v63.9M774.7 1495.5v-157.3M1116.5 2273.9v-97.3M2484.8 2220.1v70.2M1161.1 2286.3v-107.7M2692 2911.6v113.7M1901.8 704.7V572.2M804.1 2273.9v-107.6M833.3 729.5V597M1057.7 1495.5v-157.3M696.7 729.5V597M848.7 2323.6v-182.1M2448.4 704.7V572.2M986.9 1445.9v-107.7M893.4 2211.9v-70.4M1972.7 2936.4v113.7M2647.3 2170.5v113.7M938 2224.3v-82.8M845.4 1445.9v-107.7M982.6 2236.7v-95.2M2637.2 2874.4v153.1M1106.6 667.5V597M2516.8 754.3V572.2M2592.5 2133.3v152.9M916.2 1408.7v-70.5M1027.2 2249.1v-76.5M1917.9 2899.2v153.1M1071.9 2261.5v-86.9M751.1 3677.6v163.3M969.9 729.5V597M1620.8 2273.9v-132.4M491.7 1495.5v-157.3M1665.4 2323.6v-182.1M901.6 667.5V597M2721.7 704.7V572.2M491.7 779.1V597M1517.3 2961.2v95.2M1710 2273.9v-132.4M1661.9 2899.2v163.3M606.5 3739.6V3847M1754.6 2211.9v-70.4M2269.4 2220.1v70.2M1799.3 2273.9v-132.4M1765.2 704.7V572.2M1565.5 3010.8v63.9M1843.9 2323.6v-182.1M461.9 3789.2v64M1613.7 2961.2v107.4M1977.8 2273.9v-132.4M1888.5 2273.9v-132.4M1833.5 642.7v-70.5M1329.5 3677.6v163.3M1933.2 2211.9v-70.4M1442.2 2273.9v-132.4M1696.9 754.3V572.2M1308.3 2323.6v-182.1M1815 2986v70.2M2087.9 3727.2v88.9M703.9 1445.9v-107.7M1353 2273.9v-132.4M2431.9 2170.5v113.7M1421 2961.2v107.4M1798.7 3727.2v105.4M1397.6 2211.9v-70.4M2377.1 2133.3v152.9M1038.3 779.1V597M628.3 667.5V597M1486.9 2323.6v-182.1M633.2 1408.7v-70.5M2322.3 2170.5v117.8M2653.4 642.7v-70.5M1531.5 2273.9v-132.4M1469.1 2899.2v163.3M562.4 1445.9v-107.7M1943.3 3665.2v159.1M1576.1 2211.9v-70.4M1710.1 2961.2v95.2M560 729.5V597M1474.1 3739.6v95.1M2106.8 642.7v-70.5M825.7 2911.6v113.7M2295.9 1507.9v-132.5M2328.2 2961.2v70.2M1184.9 3739.6V3847M2366.7 1445.9v-70.5M770.9 2874.4v153.1M2437.4 1507.9v-132.5M1482.2 1408.7v-70.5M1123.3 3023.2v63.9M1552.9 1445.9v-107.7M2508.2 1557.5v-182.1M2175.1 704.7V572.2M716.1 2911.6v118M2377.1 3727.2v95.2M2578.9 1507.9v-132.5M1411.4 1445.9v-107.7M2649.7 1445.9v-70.5M1171.5 2973.6V3081M2720.4 1507.9v-132.5M2534.2 2961.2v70.2M1340.7 1495.5v-157.3M1075.1 2973.6v95.2M1800.7 1445.9v-70.5M1871.4 1507.9v-132.5M1729.9 1507.9v-132.5M1027 2911.6v163.3M1970.2 754.3V572.2M2431.2 2874.4v153.1M1942.2 1557.5v-182.1M2521.7 3665.2v107.5M978.8 2973.6V3081M1659.2 1557.5v-182.1M2486 2911.6v113.7M667.9 2961.2v70.2M2012.9 1507.9v-132.5M930.6 3023.2v63.9M2038.5 704.7V572.2M2083.7 1445.9v-70.5M1379.9 717.1v-87M765 779.1V597M2154.4 1507.9v-132.5M1311.6 704.7v-76.6M2376.4 2911.6v118M2225.2 1557.5v-182.1M1448.2 729.5v-97.3M1128.4 1445.9v-107.7M491.7 2323.6v-157.3M2123.9 2899.2v153.1M2311.8 704.7V572.2M2582.4 2911.6v118M510.1 2911.6v118M536.3 2273.9v-107.6M619.7 2911.6v113.7M1654.1 3776.8v64M580.9 2236.7v-70.4M461.9 2961.2v70.2M625.6 2273.9v-107.6M1199.2 1408.7v-70.5M1219.7 2911.6v163.3M2069.1 2936.4v118M670.2 2323.6v-157.3M2380.1 642.7v-70.5M2232.5 3776.8v63.9M1267.9 2973.6v95.2M714.8 2273.9v-107.6M895.7 3739.6v95.1M759.5 2236.7v-70.4M2020.9 2986v70.2M1174.9 679.9V597M2243.5 754.3V572.2M564.9 2874.4v153.1M1516.5 741.9V634.2M1243.2 692.3V597M1040.3 3789.2v64M1269.9 1445.9v-107.7M2178.7 2936.4v113.7" class="Stem"/><path d="M939 390.4c0 4.3 3 9 11 9 10.4 0 21.2-8.4 21.2-17.1 0-6-5-9.2-11.1-9.2-9.6 0-21.1 8.2-21.1 17.3M2554 365.6c0 4.3 3.2 9 11.2 9 10.3 0 21.1-8.4 21.1-17.2 0-5.8-5-9-11-9-9.7 0-21.2 8-21.2 17.2M666.7 2725.6c0 4.3 3 9 11 9 10.4 0 21.2-8.4 21.2-17.1 0-5.9-5-9.2-11.1-9.2-9.6 0-21.1 8.2-21.1 17.3M1039 3491.6c0 4.2 3.1 9 11.2 9 10.3 0 21.1-8.4 21.1-17.2 0-5.8-5-9-11.1-9-9.6 0-21.1 8-21.1 17.2M2070.3 1991.5c-13.7 0-18.6 7-18.6 13.4s4.9 13.4 18.6 13.4 18.4-7 18.4-13.4-4.7-13.4-18.4-13.4m5 23a14 14 0 0 1-4.2.6c-2.8 0-4.7-.8-6-3.3s-3-8.8-3.2-11.5q-.3-4 3.2-5a14 14 0 0 1 4.3-.7c2.7 0 4.5.7 6 3.3 1.3 2.7 3.1 9 3.1 11.5q.2 4-3.2 5M665.7 390.4c0 4.3 3 9 11 9 10.4 0 21.2-8.4 21.2-17.1 0-6-5-9.2-11.1-9.2-9.6 0-21.1 8.2-21.1 17.3M2349.1 427.6c0 4.3 3 9 11.1 9 10.3 0 21.2-8.4 21.2-17.1 0-5.9-5-9.2-11.2-9.2-9.6 0-21 8.2-21 17.3M929.3 2738c0 4.3 3.1 9 11.2 9 10.3 0 21-8.4 21-17.1 0-5.9-4.9-9.2-11-9.2-9.7 0-21.2 8.2-21.2 17.3M1564.3 2762.8c0 4.3 3 9 11 9 10.4 0 21.2-8.4 21.2-17.1 0-5.9-5-9.2-11.1-9.2-9.6 0-21.1 8.2-21.1 17.3M2212.5 328.4c0 4.2 3 9 11 9 10.4 0 21.2-8.4 21.2-17.2 0-5.8-5-9-11.1-9-9.6 0-21.1 8-21.1 17.2M2007.5 365.6c0 4.3 3 9 11.1 9 10.3 0 21.1-8.4 21.1-17.2 0-5.8-5-9-11-9-9.7 0-21.2 8-21.2 17.2M2690.7 1972c0 4.2 3.1 9 11.1 9 10.4 0 21.2-8.5 21.2-17.2 0-5.9-5-9.1-11.1-9.1-9.7 0-21.2 8.1-21.2 17.2M1939.2 340.8c0 4.2 3 9 11 9 10.4 0 21.2-8.4 21.2-17.2 0-5.8-5-9-11.1-9-9.6 0-21.1 8-21.1 17.2M2417.4 365.6c0 4.3 3.1 9 11.2 9 10.3 0 21-8.4 21-17.2 0-5.8-4.9-9-11-9-9.7 0-21.2 8-21.2 17.2M1025.7 2738c0 4.3 3 9 11.1 9 10.3 0 21.2-8.4 21.2-17.1 0-5.9-5-9.2-11.2-9.2-9.6 0-21 8.2-21 17.3M1946.8 1996.7c0 4.3 3 9 11.1 9 10.3 0 21.1-8.4 21.1-17.1 0-5.9-5-9.1-11-9.1-9.7 0-21.2 8.1-21.2 17.2M1870.9 365.6c0 4.3 3 9 11 9 10.4 0 21.2-8.4 21.2-17.2 0-5.8-5-9-11.1-9-9.6 0-21.2 8-21.2 17.2M802.3 390.4c0 4.3 3 9 11.1 9 10.3 0 21.2-8.4 21.2-17.1 0-6-5-9.2-11.2-9.2-9.6 0-21 8.2-21 17.3M2483.6 1947.1c0 4.3 3 9 11.1 9 10.3 0 21.1-8.4 21.1-17.1 0-5.9-5-9.1-11-9.1-9.7 0-21.2 8.1-21.2 17.2M2144.1 365.6c0 4.3 3.1 9 11.2 9 10.3 0 21-8.4 21-17.2 0-5.8-4.9-9-11-9-9.7 0-21.2 8-21.2 17.2M2268.2 1959.5c0 4.3 3 9 11 9 10.4 0 21.2-8.4 21.2-17.1 0-5.9-5-9.1-11.1-9.1-9.6 0-21.1 8.1-21.1 17.2M769.6 2738c0 4.3 3.1 9 11.2 9 10.3 0 21-8.4 21-17.1 0-5.9-4.9-9.2-11-9.2-9.7 0-21.2 8.2-21.2 17.3M2622.4 427.6c0 4.3 3 9 11.1 9 10.3 0 21.2-8.4 21.2-17.1 0-5.9-5-9.2-11.2-9.2-9.6 0-21 8.2-21 17.3M2280.8 365.6c0 4.3 3 9 11.1 9 10.3 0 21.1-8.4 21.1-17.2 0-5.8-5-9-11-9-9.7 0-21.2 8-21.2 17.2M2591.3 1959.5c0 4.3 3 9 11.1 9 10.3 0 21.1-8.4 21.1-17.1 0-5.9-5-9.1-11-9.1-9.7 0-21.2 8.1-21.2 17.2M1328.3 3504c0 4.2 3 9 11 9 10.4 0 21.2-8.4 21.2-17.2 0-5.8-5-9-11.1-9-9.6 0-21.2 8-21.2 17.2M1467.9 2750.4c0 4.3 3 9 11.1 9 10.3 0 21.1-8.4 21.1-17.1 0-5.9-5-9.2-11-9.2-9.7 0-21.2 8.2-21.2 17.3M1371.5 2738c0 4.3 3 9 11.1 9 10.3 0 21.2-8.4 21.2-17.1 0-5.9-5-9.2-11.2-9.2-9.6 0-21 8.2-21 17.3M2375.9 1959.5c0 4.3 3 9 11 9 10.4 0 21.2-8.4 21.2-17.1 0-5.9-5-9.1-11.1-9.1-9.6 0-21.1 8.1-21.1 17.2M1122 2725.6c0 4.3 3.1 9 11.2 9 10.3 0 21.1-8.4 21.1-17.1 0-5.9-5-9.2-11.1-9.2-9.6 0-21.1 8.2-21.1 17.3M563.7 2738c0 4.3 3 9 11 9 10.4 0 21.2-8.4 21.2-17.1 0-5.9-5-9.2-11.1-9.2-9.6 0-21.1 8.2-21.1 17.3M749.9 3504c0 4.2 3 9 11 9 10.4 0 21.2-8.4 21.2-17.2 0-5.8-5-9-11-9-9.7 0-21.2 8-21.2 17.2M2646.1 1984.3c0 4.3 3 9 11.1 9 10.3 0 21.1-8.4 21.1-17.1 0-5.9-5-9.1-11-9.1-9.7 0-21.2 8.1-21.2 17.2M1652.9 3504c0 4.2 3 9 11.1 9 10.3 0 21.1-8.4 21.1-17.2 0-5.8-5-9-11-9-9.7 0-21.2 8-21.2 17.2M1218.4 2738c0 4.3 3.1 9 11.2 9 10.3 0 21-8.4 21-17.1 0-5.9-4.9-9.2-11-9.2-9.7 0-21.2 8.2-21.2 17.3M2690.7 365.6c0 4.3 3.1 9 11.1 9 10.4 0 21.2-8.4 21.2-17.2 0-5.8-5-9-11.1-9-9.7 0-21.2 8-21.2 17.2M870.6 415.2c0 4.3 3.1 9 11.1 9 10.4 0 21.2-8.4 21.2-17.1 0-5.9-5-9.2-11.1-9.2-9.7 0-21.2 8.2-21.2 17.3M1769.7 1193.6c0 4.2 3 9 11 9 10.4 0 21.2-8.5 21.2-17.2 0-5.8-5-9.1-11.1-9.1-9.6 0-21.1 8.1-21.1 17.3M2075.8 427.6c0 4.3 3 9 11.1 9 10.3 0 21.2-8.4 21.2-17.1 0-5.9-5-9.2-11.2-9.2-9.6 0-21 8.2-21 17.3M2485.8 340.8c0 4.2 3 9 11 9 10.4 0 21.2-8.4 21.2-17.2 0-5.8-5-9-11.1-9-9.6 0-21.1 8-21.1 17.2M460.7 2738c0 4.3 3 9 11.1 9 10.3 0 21.1-8.4 21.1-17.1 0-5.9-5-9.2-11-9.2-9.7 0-21.2 8.2-21.2 17.3M1942 3516.4c0 4.2 3.2 9 11.2 9 10.3 0 21.1-8.4 21.1-17.2 0-5.8-5-9-11-9-9.7 0-21.2 8-21.2 17.2M734 353.2c0 4.2 3 9 11.1 9 10.3 0 21.1-8.4 21.1-17.2 0-5.8-5-9-11-9-9.7 0-21.2 8-21.2 17.2M2636 2738c0 4.3 3 9 11 9 10.4 0 21.2-8.4 21.2-17.1 0-5.9-5-9.2-11.1-9.2-9.7 0-21.2 8.2-21.2 17.3M2406.4 1144c0 4.2 3 9 11.1 9 10.3 0 21.2-8.5 21.2-17.2 0-5.8-5-9.1-11.2-9.1-9.6 0-21 8.1-21 17.3M2327 2738c0 4.3 3 9 11.1 9 10.3 0 21.1-8.4 21.1-17.1 0-5.9-5-9.2-11-9.2-9.7 0-21.2 8.2-21.2 17.3M683.8 1922.3c0 4.3 3.1 9 11.2 9 10.3 0 21-8.4 21-17.1 0-5.9-4.9-9.1-11-9.1-9.7 0-21.2 8.1-21.2 17.2M2335.7 1193.6c0 4.2 3 9 11 9 10.4 0 21.2-8.5 21.2-17.2 0-5.8-5-9.1-11.1-9.1-9.6 0-21.1 8.1-21.1 17.3M728.5 1947.1c0 4.3 3 9 11 9 10.4 0 21.2-8.4 21.2-17.1 0-5.9-5-9.1-11.1-9.1-9.6 0-21.1 8.1-21.1 17.2M2265 1144c0 4.2 3 9 11 9 10.3 0 21.2-8.5 21.2-17.2 0-5.8-5-9.1-11.2-9.1-9.6 0-21 8.1-21 17.3M773.1 1922.3c0 4.3 3 9 11.1 9 10.3 0 21.1-8.4 21.1-17.1 0-5.9-5-9.1-11-9.1-9.7 0-21.2 8.1-21.2 17.2M1522 1131.6c0 4.2 3 9 11 9 10.4 0 21.2-8.5 21.2-17.2 0-5.8-5-9.1-11.1-9.1-9.7 0-21.2 8.1-21.2 17.3M2019.7 2725.6c0 4.3 3 9 11 9 10.4 0 21.2-8.4 21.2-17.1 0-5.9-5-9.2-11.1-9.2-9.6 0-21.1 8.2-21.1 17.3M1026.7 1094.4c0 4.2 3 9 11.1 9 10.3 0 21.1-8.5 21.1-17.2 0-5.8-5-9.1-11-9.1-9.7 0-21.2 8.1-21.2 17.3M817.7 1872.7c0 4.3 3.1 9 11.1 9 10.4 0 21.2-8.4 21.2-17.1 0-5.9-5-9.1-11.1-9.1-9.7 0-21.2 8-21.2 17.2M1097.4 1131.6c0 4.2 3.1 9 11.2 9 10.3 0 21-8.5 21-17.2 0-5.8-4.9-9.1-11-9.1-9.7 0-21.2 8.1-21.2 17.3M2231.3 3504c0 4.2 3 9 11 9 10.4 0 21.2-8.4 21.2-17.2 0-5.8-5-9-11.1-9-9.6 0-21.1 8-21.1 17.2M862.4 1922.3c0 4.3 3 9 11 9 10.4 0 21.2-8.4 21.2-17.1 0-5.9-5-9.1-11.1-9.1-9.6 0-21.1 8.1-21.1 17.2M2194.2 1094.4c0 4.2 3 9 11 9 10.4 0 21.2-8.5 21.2-17.2 0-5.8-5-9.1-11.1-9.1-9.6 0-21.1 8.1-21.1 17.3M956 1131.6c0 4.2 3 9 11 9 10.4 0 21.2-8.5 21.2-17.2 0-5.8-5-9.1-11.1-9.1-9.7 0-21.2 8.1-21.2 17.3M907 1947.1c0 4.3 3 9 11.1 9 10.3 0 21.1-8.4 21.1-17.1 0-5.9-5-9.1-11-9.1-9.7 0-21.2 8.1-21.2 17.2M1417.2 415.2c0 4.3 3 9 11.1 9 10.3 0 21.2-8.4 21.2-17.1 0-5.9-5-9.2-11.2-9.2-9.6 0-21 8.2-21 17.3M1665.9 340.8c0 4.2 3 9 11 9 10.4 0 21.2-8.4 21.2-17.2 0-5.8-5-9-11-9-9.7 0-21.2 8-21.2 17.2M951.6 1922.3c0 4.3 3 9 11.1 9 10.3 0 21.2-8.4 21.2-17.1 0-5.9-5-9.1-11.1-9.1-9.7 0-21.2 8.1-21.2 17.2M1075.6 390.4c0 4.3 3 9 11.1 9 10.3 0 21.1-8.4 21.1-17.1 0-6-5-9.2-11-9.2-9.7 0-21.2 8.2-21.2 17.3M885.2 1193.6c0 4.2 3 9 11.1 9 10.3 0 21.1-8.5 21.1-17.2 0-5.8-5-9.1-11-9.1-9.7 0-21.2 8.1-21.2 17.3M1040.9 1922.3c0 4.3 3 9 11 9 10.4 0 21.2-8.4 21.2-17.1 0-5.9-5-9.1-11-9.1-9.7 0-21.2 8.1-21.2 17.2M2477.2 1106.8c0 4.2 3 9 11 9 10.4 0 21.2-8.5 21.2-17.2 0-5.8-5-9.1-11.1-9.1-9.6 0-21.1 8.1-21.1 17.3M2548 1144c0 4.2 3 9 11 9 10.3 0 21.2-8.5 21.2-17.2 0-5.8-5-9.1-11.2-9.1-9.6 0-21 8.1-21 17.3M1380.4 1131.6c0 4.2 3.1 9 11.2 9 10.3 0 21-8.5 21-17.2 0-5.8-4.9-9.1-11-9.1-9.7 0-21.2 8.1-21.2 17.3M2618.7 1193.6c0 4.2 3 9 11 9 10.4 0 21.2-8.5 21.2-17.2 0-5.8-5-9.1-11.1-9.1-9.6 0-21.1 8.1-21.1 17.3M2222 2750.4c0 4.3 3.1 9 11.2 9 10.3 0 21.1-8.4 21.1-17.1 0-5.9-5-9.2-11-9.2-9.7 0-21.2 8.2-21.2 17.3M2689.4 1144c0 4.2 3 9 11.1 9 10.3 0 21.2-8.5 21.2-17.2 0-5.8-5-9.1-11.2-9.1-9.6 0-21 8.1-21 17.3M2533 2725.6c0 4.3 3 9 11 9 10.4 0 21.2-8.4 21.2-17.1 0-5.9-5-9.2-11.1-9.2-9.6 0-21.2 8.2-21.2 17.3M1309.7 1106.8c0 4.2 3 9 11.1 9 10.3 0 21.1-8.5 21.1-17.2 0-5.8-5-9.1-11-9.1-9.7 0-21.2 8.1-21.2 17.3M1212.3 390.4c0 4.3 3 9 11 9 10.4 0 21.2-8.4 21.2-17.1 0-6-5-9.2-11.1-9.2-9.6 0-21.2 8.2-21.2 17.3M1485.6 390.4c0 4.3 3 9 11 9 10.4 0 21.2-8.4 21.2-17.1 0-6-5-9.2-11.1-9.2-9.6 0-21.2 8.2-21.2 17.3M2177.5 2762.8c0 4.3 3 9 11 9 10.4 0 21.2-8.4 21.2-17.1 0-5.9-5-9.2-11.1-9.2-9.6 0-21.2 8.2-21.2 17.3M1451.2 1193.6c0 4.2 3 9 11.1 9 10.3 0 21.1-8.5 21.1-17.2 0-5.8-5-9.1-11-9.1-9.7 0-21.2 8.1-21.2 17.3M996.3 1860.3c0 4.3 3 9 11 9 10.4 0 21.2-8.4 21.2-17.1 0-5.9-5-9.1-11.1-9.1-9.6 0-21.1 8-21.1 17.2M460.7 1872.7c0 4.3 3 9 11.1 9 10.3 0 21.1-8.4 21.1-17.1 0-5.9-5-9.1-11-9.1-9.7 0-21.2 8-21.2 17.2M1239 1131.6c0 4.2 3 9 11 9 10.4 0 21.2-8.5 21.2-17.2 0-5.8-5-9.1-11.1-9.1-9.7 0-21.2 8.1-21.2 17.3M2122.7 2738c0 4.3 3 9 11 9 10.4 0 21.2-8.4 21.2-17.1 0-5.9-5-9.2-11.1-9.2-9.6 0-21.2 8.2-21.2 17.3M505.3 1922.3c0 4.3 3 9 11.1 9 10.3 0 21.2-8.4 21.2-17.1 0-5.9-5-9.1-11.1-9.1-9.7 0-21.2 8.1-21.2 17.2M550 1947.1c0 4.3 3 9 11 9 10.4 0 21.2-8.4 21.2-17.1 0-5.9-5-9.1-11.1-9.1-9.6 0-21.1 8.1-21.1 17.2M1280.6 328.4c0 4.2 3 9 11 9 10.4 0 21.2-8.4 21.2-17.2 0-5.8-5-9-11.1-9-9.6 0-21.1 8-21.1 17.2M1168.2 1193.6c0 4.2 3 9 11.1 9 10.3 0 21.1-8.5 21.1-17.2 0-5.8-5-9.1-11-9.1-9.7 0-21.2 8.1-21.2 17.3M594.6 1922.3c0 4.3 3 9 11.1 9 10.3 0 21.1-8.4 21.1-17.1 0-5.9-5-9.1-11-9.1-9.7 0-21.2 8.1-21.2 17.2M529 390.4c0 4.3 3 9 11.1 9 10.3 0 21.2-8.4 21.2-17.1 0-6-5-9.2-11.2-9.2-9.6 0-21 8.2-21 17.3M1144 415.2c0 4.3 3 9 11 9 10.4 0 21.2-8.4 21.2-17.1 0-5.9-5-9.2-11.1-9.2-9.7 0-21.2 8.2-21.2 17.3M639.2 1885.1c0 4.3 3 9 11.1 9 10.3 0 21.2-8.4 21.2-17.1 0-5.9-5-9.1-11.2-9.1-9.6 0-21 8.1-21 17.2M2520.5 3491.6c0 4.2 3 9 11 9 10.4 0 21.2-8.4 21.2-17.2 0-5.8-5-9-11.1-9-9.6 0-21.1 8-21.1 17.2M1500.5 1922.3c0 4.3 3 9 11.1 9 10.3 0 21.1-8.4 21.1-17.1 0-5.9-5-9.1-11-9.1-9.7 0-21.2 8.1-21.2 17.2M1916.7 2738c0 4.3 3 9 11.1 9 10.3 0 21.1-8.4 21.1-17.1 0-5.9-5-9.2-11-9.2-9.7 0-21.2 8.2-21.2 17.3M2430 2738c0 4.3 3 9 11 9 10.4 0 21.2-8.4 21.2-17.1 0-5.9-5-9.2-11.1-9.2-9.6 0-21.1 8.2-21.1 17.3M1545.1 1947.1c0 4.3 3.1 9 11.1 9 10.4 0 21.2-8.4 21.2-17.1 0-5.9-5-9.1-11.1-9.1-9.7 0-21.2 8.1-21.2 17.2M531.4 1131.6c0 4.2 3.1 9 11.2 9 10.3 0 21-8.5 21-17.2 0-5.8-4.9-9.1-11-9.1-9.7 0-21.2 8.1-21.2 17.3M1589.8 1922.3c0 4.3 3 9 11 9 10.4 0 21.2-8.4 21.2-17.1 0-5.9-5-9.1-11.1-9.1-9.6 0-21.1 8.1-21.1 17.2M1634.4 1872.7c0 4.3 3 9 11.1 9 10.3 0 21.1-8.4 21.1-17.1 0-5.9-5-9.1-11-9.1-9.7 0-21.2 8-21.2 17.2M460.7 1106.8c0 4.2 3 9 11.1 9 10.3 0 21.1-8.5 21.1-17.2 0-5.8-5-9.1-11-9.1-9.7 0-21.2 8.1-21.2 17.3M1911.2 1106.8c0 4.2 3 9 11 9 10.4 0 21.2-8.5 21.2-17.2 0-5.8-5-9.1-11.1-9.1-9.6 0-21.1 8.1-21.1 17.3M1734.2 365.6c0 4.3 3 9 11.1 9 10.3 0 21.1-8.4 21.1-17.2 0-5.8-5-9-11-9-9.7 0-21.2 8-21.2 17.2M1679 1922.3c0 4.3 3 9 11.1 9 10.3 0 21.2-8.4 21.2-17.1 0-5.9-5-9.1-11.2-9.1-9.6 0-21 8.1-21 17.2M1982 1144c0 4.2 3 9 11 9 10.3 0 21.2-8.5 21.2-17.2 0-5.8-5-9.1-11.2-9.1-9.6 0-21 8.1-21 17.3M460.7 340.8c0 4.2 3 9 11.1 9 10.3 0 21.1-8.4 21.1-17.2 0-5.8-5-9-11-9-9.7 0-21.2 8-21.2 17.2M1723.7 1934.7c0 4.3 3 9 11 9 10.4 0 21.2-8.4 21.2-17.1 0-5.9-5-9.1-11.1-9.1-9.6 0-21.1 8.1-21.1 17.2M1660.6 2750.4c0 4.3 3 9 11.1 9 10.3 0 21.2-8.4 21.2-17.1 0-5.9-5-9.2-11.2-9.2-9.6 0-21 8.2-21 17.3M1768.3 1947.1c0 4.3 3 9 11 9 10.4 0 21.2-8.4 21.2-17.1 0-5.9-5-9.1-11-9.1-9.7 0-21.2 8.1-21.2 17.2M460.7 3504c0 4.2 3 9 11.1 9 10.3 0 21.1-8.4 21.1-17.2 0-5.8-5-9-11-9-9.7 0-21.2 8-21.2 17.2M1813 1959.5c0 4.3 3 9 11 9 10.3 0 21.2-8.4 21.2-17.1 0-5.9-5-9.1-11.2-9.1-9.6 0-21 8.1-21 17.2M1699 1144c0 4.2 3 9 11 9 10.3 0 21.2-8.5 21.2-17.2 0-5.8-5-9.1-11.2-9.1-9.6 0-21 8.1-21 17.3M1802.5 427.6c0 4.3 3.1 9 11.1 9 10.4 0 21.2-8.4 21.2-17.1 0-5.9-5-9.2-11.1-9.2-9.7 0-21.2 8.2-21.2 17.3M1857.5 1972c0 4.2 3.1 9 11.2 9 10.3 0 21-8.5 21-17.2 0-5.9-4.9-9.1-11-9.1-9.7 0-21.2 8.1-21.2 17.2M1840.4 1144c0 4.2 3 9 11.1 9 10.3 0 21.2-8.5 21.2-17.2 0-5.8-5-9.1-11.2-9.1-9.6 0-21 8.1-21 17.3M1902.2 1984.3c0 4.3 3 9 11 9 10.4 0 21.2-8.4 21.2-17.1 0-5.9-5-9.1-11.1-9.1-9.6 0-21.1 8.1-21.1 17.2M1813.7 2738c0 4.3 3 9 11.1 9 10.3 0 21.2-8.4 21.2-17.1 0-5.9-5-9.2-11.2-9.2-9.6 0-21 8.2-21 17.3M1085.5 1947.1c0 4.3 3 9 11.1 9 10.3 0 21.2-8.4 21.2-17.1 0-5.9-5-9.1-11.2-9.1-9.6 0-21 8.1-21 17.2M814.4 1131.6c0 4.2 3.1 9 11.2 9 10.3 0 21-8.5 21-17.2 0-5.8-4.9-9.1-11-9.1-9.7 0-21.2 8.1-21.2 17.3M1130.1 1922.3c0 4.3 3.1 9 11.2 9 10.3 0 21-8.4 21-17.1 0-5.9-4.9-9.1-11-9.1-9.7 0-21.2 8.1-21.2 17.2M2123.4 1144c0 4.2 3 9 11.1 9 10.3 0 21.2-8.5 21.2-17.2 0-5.8-5-9.1-11.2-9.1-9.6 0-21 8.1-21 17.3M743.7 1106.8c0 4.2 3 9 11.1 9 10.3 0 21.1-8.5 21.1-17.2 0-5.8-5-9.1-11-9.1-9.7 0-21.2 8.1-21.2 17.3M1277.4 1872.7c0 4.3 3 9 11 9 10.4 0 21.2-8.4 21.2-17.1 0-5.9-5-9.1-11.1-9.1-9.6 0-21.2 8-21.2 17.2M1322 1922.3c0 4.3 3 9 11 9 10.4 0 21.2-8.4 21.2-17.1 0-5.9-5-9.1-11-9.1-9.7 0-21.2 8.1-21.2 17.2M602.2 1193.6c0 4.2 3 9 11.1 9 10.3 0 21.1-8.5 21.1-17.2 0-5.8-5-9.1-11-9.1-9.7 0-21.2 8.1-21.2 17.3M673 1131.6c0 4.2 3 9 11 9 10.4 0 21.2-8.5 21.2-17.2 0-5.8-5-9.1-11.1-9.1-9.7 0-21.2 8.1-21.2 17.3M1366.6 1947.1c0 4.3 3 9 11.1 9 10.3 0 21.2-8.4 21.2-17.1 0-5.9-5-9.1-11.2-9.1-9.6 0-21 8.1-21 17.2M1411.2 1922.3c0 4.3 3.1 9 11.2 9 10.3 0 21-8.4 21-17.1 0-5.9-4.9-9.1-11-9.1-9.7 0-21.2 8.1-21.2 17.2M1628.2 1106.8c0 4.2 3 9 11 9 10.4 0 21.2-8.5 21.2-17.2 0-5.8-5-9.1-11.1-9.1-9.6 0-21.1 8.1-21.1 17.3M1455.9 1885.1c0 4.3 3 9 11 9 10.4 0 21.2-8.4 21.2-17.1 0-5.9-5-9.1-11.1-9.1-9.6 0-21.1 8.1-21.1 17.2M1348.9 390.4c0 4.3 3 9 11.1 9 10.3 0 21.1-8.4 21.1-17.1 0-6-5-9.2-11-9.2-9.7 0-21.2 8.2-21.2 17.3M1007.3 340.8c0 4.2 3 9 11 9 10.4 0 21.2-8.4 21.2-17.2 0-5.8-5-9-11-9-9.7 0-21.2 8-21.2 17.2M597.3 415.2c0 4.3 3.1 9 11.2 9 10.3 0 21-8.4 21-17.1 0-5.9-4.9-9.2-11-9.2-9.7 0-21.2 8.2-21.2 17.3M2052.7 1193.6c0 4.2 3 9 11 9 10.4 0 21.2-8.5 21.2-17.2 0-5.8-5-9.1-11.1-9.1-9.6 0-21.1 8.1-21.1 17.3M1183.7 3739.6c0 4.3 3 9 11 9 10.4 0 21.2-8.4 21.2-17.1 0-5.9-5-9.2-11.1-9.2-9.6 0-21.1 8.2-21.1 17.3M2430 2874.4c0 4.3 3 9 11 9 10.4 0 21.2-8.4 21.2-17.1 0-5.9-5-9.1-11.1-9.1-9.6 0-21.1 8.1-21.1 17.2M2375.2 2911.6c0 4.3 3 9 11 9 10.4 0 21.2-8.4 21.2-17.1 0-5.9-5-9.1-11.1-9.1-9.6 0-21.1 8.1-21.1 17.2M1039 3789.2c0 4.3 3.1 9 11.2 9 10.3 0 21.1-8.4 21.1-17.1 0-5.9-5-9.1-11.1-9.1-9.6 0-21.1 8-21.1 17.2M529 737.6c0 4.3 3 9 11.1 9 10.3 0 21.2-8.4 21.2-17.1 0-5.9-5-9.1-11.2-9.1-9.6 0-21 8.1-21 17.2M1073.9 2973.6c0 4.3 3 9 11.1 9 10.3 0 21.1-8.4 21.1-17.1 0-5.9-5-9.1-11-9.1-9.7 0-21.2 8.1-21.2 17.2M1025.7 2911.6c0 4.3 3 9 11.1 9 10.3 0 21.2-8.4 21.2-17.1 0-5.9-5-9.1-11.2-9.1-9.6 0-21 8.1-21 17.2M2484.8 2911.6c0 4.3 3 9 11 9 10.4 0 21.2-8.4 21.2-17.1 0-5.9-5-9.1-11.1-9.1-9.6 0-21.1 8.1-21.1 17.2M2327 2961.2c0 4.3 3 9 11.1 9 10.3 0 21.1-8.4 21.1-17.1 0-5.9-5-9.1-11-9.1-9.7 0-21.2 8.1-21.2 17.2M1366.6 2220c0 4.3 3 9 11.1 9 10.3 0 21.2-8.3 21.2-17 0-6-5-9.2-11.2-9.2-9.6 0-21 8.1-21 17.3M605.3 3739.6c0 4.3 3 9 11.1 9 10.3 0 21.1-8.4 21.1-17.1 0-5.9-5-9.2-11-9.2-9.7 0-21.2 8.2-21.2 17.3M1861.9 2936.4c0 4.3 3 9 11.1 9 10.3 0 21.1-8.4 21.1-17.1 0-5.9-5-9.1-11-9.1-9.7 0-21.2 8.1-21.2 17.2M1371.5 3010.9c0 4.2 3 9 11.1 9 10.3 0 21.2-8.5 21.2-17.2 0-5.8-5-9.1-11.2-9.1-9.6 0-21 8.1-21 17.3M2636 2874.4c0 4.3 3 9 11 9 10.4 0 21.2-8.4 21.2-17.1 0-5.9-5-9.1-11.1-9.1-9.7 0-21.2 8.1-21.2 17.2M1813.7 2986c0 4.3 3 9 11.1 9 10.3 0 21.2-8.4 21.2-17.1 0-5.9-5-9.1-11.2-9.1-9.6 0-21 8.1-21 17.2M2690.7 2911.6c0 4.3 3.1 9 11.1 9 10.4 0 21.2-8.4 21.2-17.1 0-5.9-5-9.1-11.1-9.1-9.7 0-21.2 8.1-21.2 17.2M1419.7 2961.2c0 4.3 3 9 11.1 9 10.3 0 21.2-8.4 21.2-17.1 0-5.9-5-9.1-11.2-9.1-9.6 0-21 8.1-21 17.2M597.3 675.6c0 4.3 3.1 9 11.2 9 10.3 0 21-8.4 21-17.1 0-5.9-4.9-9.1-11-9.1-9.7 0-21.2 8.1-21.2 17.2M1708.8 2961.2c0 4.3 3 9 11.1 9 10.3 0 21.2-8.4 21.2-17.1 0-5.9-5-9.1-11.2-9.1-9.6 0-21 8.1-21 17.2M1916.7 2899.2c0 4.3 3 9 11.1 9 10.3 0 21.1-8.4 21.1-17.1 0-5.9-5-9.1-11-9.1-9.7 0-21.2 8.1-21.2 17.2M1660.6 2899.2c0 4.3 3 9 11.1 9 10.3 0 21.2-8.4 21.2-17.1 0-5.9-5-9.1-11.2-9.1-9.6 0-21 8.1-21 17.2M460.7 787.2c0 4.3 3 9 11.1 9 10.3 0 21.1-8.4 21.1-17.1 0-5.9-5-9.1-11-9.1-9.7 0-21.2 8.1-21.2 17.2M1467.9 2899.2c0 4.3 3 9 11.1 9 10.3 0 21.1-8.4 21.1-17.1 0-5.9-5-9.1-11-9.1-9.7 0-21.2 8.1-21.2 17.2M1516 2961.2c0 4.3 3.1 9 11.2 9 10.3 0 21.1-8.4 21.1-17.1 0-5.9-5-9.1-11.1-9.1-9.6 0-21.1 8.1-21.1 17.2M1612.4 2961.2c0 4.3 3.1 9 11.2 9 10.3 0 21-8.4 21-17.1 0-5.9-4.9-9.1-11-9.1-9.7 0-21.2 8.1-21.2 17.2M460.7 3789.2c0 4.3 3 9 11.1 9 10.3 0 21.1-8.4 21.1-17.1 0-5.9-5-9.1-11-9.1-9.7 0-21.2 8-21.2 17.2M1564.3 3010.9c0 4.2 3 9 11 9 10.4 0 21.2-8.5 21.2-17.2 0-5.8-5-9.1-11.1-9.1-9.6 0-21.1 8.1-21.1 17.3M1122 3023.3c0 4.2 3.1 9 11.2 9 10.3 0 21.1-8.5 21.1-17.2 0-5.8-5-9.1-11.1-9.1-9.6 0-21.1 8.1-21.1 17.3M749.9 3677.6c0 4.3 3 9 11 9 10.4 0 21.2-8.4 21.2-17.1 0-5.9-5-9.2-11-9.2-9.7 0-21.2 8.2-21.2 17.3M1971.5 2936.4c0 4.3 3 9 11.1 9 10.3 0 21.1-8.4 21.1-17.1 0-5.9-5-9.1-11-9.1-9.7 0-21.2 8.1-21.2 17.2M665.7 737.6c0 4.3 3 9 11 9 10.4 0 21.2-8.4 21.2-17.1 0-5.9-5-9.1-11.1-9.1-9.6 0-21.1 8.1-21.1 17.2M2581.1 2911.6c0 4.3 3.1 9 11.1 9 10.4 0 21.2-8.4 21.2-17.1 0-5.9-5-9.1-11.1-9.1-9.7 0-21.2 8.1-21.2 17.2M2019.7 2986c0 4.3 3 9 11 9 10.4 0 21.2-8.4 21.2-17.1 0-5.9-5-9.1-11.1-9.1-9.6 0-21.1 8.1-21.1 17.2M1266.6 2973.6c0 4.3 3 9 11.1 9 10.3 0 21.2-8.4 21.2-17.1 0-5.9-5-9.1-11.2-9.1-9.6 0-21 8.1-21 17.2M1472.8 3739.6c0 4.3 3.1 9 11.2 9 10.3 0 21-8.4 21-17.1 0-5.9-4.9-9.2-11-9.2-9.7 0-21.2 8.2-21.2 17.3M1218.4 2911.6c0 4.3 3.1 9 11.2 9 10.3 0 21-8.4 21-17.1 0-5.9-4.9-9.1-11-9.1-9.7 0-21.2 8.1-21.2 17.2M894.5 3739.6c0 4.3 3 9 11 9 10.4 0 21.2-8.4 21.2-17.1 0-5.9-5-9.2-11.1-9.2-9.6 0-21.1 8.2-21.1 17.3M2067.9 2936.4c0 4.3 3 9 11 9 10.4 0 21.2-8.4 21.2-17.1 0-5.9-5-9.1-11.1-9.1-9.6 0-21.1 8.1-21.1 17.2M1328.3 3677.6c0 4.3 3 9 11 9 10.4 0 21.2-8.4 21.2-17.1 0-5.9-5-9.2-11.1-9.2-9.6 0-21.2 8.2-21.2 17.3M2122.7 2899.2c0 4.3 3 9 11 9 10.4 0 21.2-8.4 21.2-17.1 0-5.9-5-9.1-11.1-9.1-9.6 0-21.2 8.1-21.2 17.2M1170.3 2973.6c0 4.3 3 9 11 9 10.4 0 21.2-8.4 21.2-17.1 0-5.9-5-9.1-11.1-9.1-9.6 0-21.1 8.1-21.1 17.2M2533 2961.2c0 4.3 3 9 11 9 10.4 0 21.2-8.4 21.2-17.1 0-5.9-5-9.1-11.1-9.1-9.6 0-21.2 8.1-21.2 17.2M2177.5 2936.4c0 4.3 3 9 11 9 10.4 0 21.2-8.4 21.2-17.1 0-5.9-5-9.1-11.1-9.1-9.6 0-21.2 8.1-21.2 17.2M2052.7 1454c0 4.3 3 9 11 9 10.4 0 21.2-8.4 21.2-17.1 0-5.9-5-9.2-11.1-9.2-9.6 0-21.1 8.2-21.1 17.3M2477.2 1565.6c0 4.3 3 9 11 9 10.4 0 21.2-8.4 21.2-17.1 0-5.9-5-9.2-11.1-9.2-9.6 0-21.1 8.2-21.1 17.3M2406.4 1516c0 4.3 3 9 11.1 9 10.3 0 21.2-8.4 21.2-17.1 0-5.9-5-9.2-11.2-9.2-9.6 0-21 8.2-21 17.3M2335.7 1454c0 4.3 3 9 11 9 10.4 0 21.2-8.4 21.2-17.1 0-5.9-5-9.2-11.1-9.2-9.6 0-21.1 8.2-21.1 17.3M2265 1516c0 4.3 3 9 11 9 10.3 0 21.2-8.4 21.2-17.1 0-5.9-5-9.2-11.2-9.2-9.6 0-21 8.2-21 17.3M2375.9 3727.2c0 4.3 3 9 11 9 10.4 0 21.2-8.4 21.2-17.1 0-5.9-5-9.2-11.1-9.2-9.6 0-21.1 8.2-21.1 17.3M2194.2 1565.6c0 4.3 3 9 11 9 10.4 0 21.2-8.4 21.2-17.1 0-5.9-5-9.2-11.1-9.2-9.6 0-21.1 8.2-21.1 17.3M1280.6 712.8c0 4.3 3 9 11 9 10.4 0 21.2-8.4 21.2-17.1 0-5.9-5-9.1-11.1-9.1-9.6 0-21.1 8.1-21.1 17.2M2123.4 1516c0 4.3 3 9 11.1 9 10.3 0 21.2-8.4 21.2-17.1 0-5.9-5-9.2-11.2-9.2-9.6 0-21 8.2-21 17.3M2548 1516c0 4.3 3 9 11 9 10.3 0 21.2-8.4 21.2-17.1 0-5.9-5-9.2-11.2-9.2-9.6 0-21 8.2-21 17.3M1982 1516c0 4.3 3 9 11 9 10.3 0 21.2-8.4 21.2-17.1 0-5.9-5-9.2-11.2-9.2-9.6 0-21 8.2-21 17.3M1911.2 1565.6c0 4.3 3 9 11 9 10.4 0 21.2-8.4 21.2-17.1 0-5.9-5-9.2-11.1-9.2-9.6 0-21.1 8.2-21.1 17.3M1840.4 1516c0 4.3 3 9 11.1 9 10.3 0 21.2-8.4 21.2-17.1 0-5.9-5-9.2-11.2-9.2-9.6 0-21 8.2-21 17.3M1769.7 1454c0 4.3 3 9 11 9 10.4 0 21.2-8.4 21.2-17.1 0-5.9-5-9.2-11.1-9.2-9.6 0-21.1 8.2-21.1 17.3M1699 1516c0 4.3 3 9 11 9 10.3 0 21.2-8.4 21.2-17.1 0-5.9-5-9.2-11.2-9.2-9.6 0-21 8.2-21 17.3M1628.2 1565.6c0 4.3 3 9 11 9 10.4 0 21.2-8.4 21.2-17.1 0-5.9-5-9.2-11.1-9.2-9.6 0-21.1 8.2-21.1 17.3M1348.9 725.2c0 4.3 3 9 11.1 9 10.3 0 21.1-8.4 21.1-17.1 0-5.9-5-9.1-11-9.1-9.7 0-21.2 8.1-21.2 17.2M1522 1454c0 4.3 3 9 11 9 10.4 0 21.2-8.4 21.2-17.1 0-5.9-5-9.2-11.1-9.2-9.7 0-21.2 8.2-21.2 17.3M550 2244.9c0 4.2 3 9 11 9 10.4 0 21.2-8.4 21.2-17.2 0-5.8-5-9-11.1-9-9.6 0-21.1 8-21.1 17.2M862.4 2220c0 4.3 3 9 11 9 10.4 0 21.2-8.3 21.2-17 0-6-5-9.2-11.1-9.2-9.6 0-21.1 8.1-21.1 17.3M817.7 2331.7c0 4.3 3.1 9 11.1 9 10.4 0 21.2-8.4 21.2-17.1 0-6-5-9.2-11.1-9.2-9.7 0-21.2 8.2-21.2 17.3M1075.6 675.6c0 4.3 3 9 11.1 9 10.3 0 21.1-8.4 21.1-17.1 0-5.9-5-9.1-11-9.1-9.7 0-21.2 8.1-21.2 17.2M773.1 2282c0 4.3 3 9.1 11.1 9.1 10.3 0 21.1-8.4 21.1-17.2 0-5.8-5-9-11-9-9.7 0-21.2 8-21.2 17.2M728.5 2244.9c0 4.2 3 9 11 9 10.4 0 21.2-8.4 21.2-17.2 0-5.8-5-9-11.1-9-9.6 0-21.1 8-21.1 17.2M683.8 2282c0 4.3 3.1 9.1 11.2 9.1 10.3 0 21-8.4 21-17.2 0-5.8-4.9-9-11-9-9.7 0-21.2 8-21.2 17.2M639.2 2331.7c0 4.3 3 9 11.1 9 10.3 0 21.2-8.4 21.2-17.1 0-6-5-9.2-11.2-9.2-9.6 0-21 8.2-21 17.3M594.6 2282c0 4.3 3 9.1 11.1 9.1 10.3 0 21.1-8.4 21.1-17.2 0-5.8-5-9-11-9-9.7 0-21.2 8-21.2 17.2M1417.2 737.6c0 4.3 3 9 11.1 9 10.3 0 21.2-8.4 21.2-17.1 0-5.9-5-9.1-11.2-9.1-9.6 0-21 8.1-21 17.2M505.3 2282c0 4.3 3 9.1 11.1 9.1 10.3 0 21.2-8.4 21.2-17.2 0-5.8-5-9-11.1-9-9.7 0-21.2 8-21.2 17.2M2231.3 3776.8c0 4.3 3 9 11 9 10.4 0 21.2-8.4 21.2-17.1 0-5.9-5-9.1-11.1-9.1-9.6 0-21.1 8-21.1 17.2M460.7 2331.7c0 4.3 3 9 11.1 9 10.3 0 21.1-8.4 21.1-17.1 0-6-5-9.2-11-9.2-9.7 0-21.2 8.2-21.2 17.3M1144 688c0 4.3 3 9 11 9 10.4 0 21.2-8.4 21.2-17.1 0-5.9-5-9.1-11.1-9.1-9.7 0-21.2 8.1-21.2 17.2M1212.3 700.4c0 4.3 3 9 11 9 10.4 0 21.2-8.4 21.2-17.1 0-5.9-5-9.1-11.1-9.1-9.6 0-21.2 8.1-21.2 17.2M2689.4 1516c0 4.3 3 9 11.1 9 10.3 0 21.2-8.4 21.2-17.1 0-5.9-5-9.2-11.2-9.2-9.6 0-21 8.2-21 17.3M2618.7 1454c0 4.3 3 9 11 9 10.4 0 21.2-8.4 21.2-17.1 0-5.9-5-9.2-11.1-9.2-9.6 0-21.1 8.2-21.1 17.3M2417.4 712.8c0 4.3 3.1 9 11.2 9 10.3 0 21-8.4 21-17.1 0-5.9-4.9-9.1-11-9.1-9.7 0-21.2 8.1-21.2 17.2M460.7 1503.6c0 4.3 3 9 11.1 9 10.3 0 21.1-8.4 21.1-17.1 0-5.9-5-9.2-11-9.2-9.7 0-21.2 8.2-21.2 17.3M1734.2 712.8c0 4.3 3 9 11.1 9 10.3 0 21.1-8.4 21.1-17.1 0-5.9-5-9.1-11-9.1-9.7 0-21.2 8.1-21.2 17.2M1802.5 650.8c0 4.3 3.1 9 11.1 9 10.4 0 21.2-8.4 21.2-17.1 0-5.9-5-9.1-11.1-9.1-9.7 0-21.2 8-21.2 17.2M2690.7 712.8c0 4.3 3.1 9 11.1 9 10.4 0 21.2-8.4 21.2-17.1 0-5.9-5-9.1-11.1-9.1-9.7 0-21.2 8.1-21.2 17.2M2622.4 650.8c0 4.3 3 9 11.1 9 10.3 0 21.2-8.4 21.2-17.1 0-5.9-5-9.1-11.2-9.1-9.6 0-21 8-21 17.2M2554 712.8c0 4.3 3.2 9 11.2 9 10.3 0 21.1-8.4 21.1-17.1 0-5.9-5-9.1-11-9.1-9.7 0-21.2 8.1-21.2 17.2M2485.8 762.4c0 4.3 3 9 11 9 10.4 0 21.2-8.4 21.2-17.1 0-5.9-5-9.1-11.1-9.1-9.6 0-21.1 8.1-21.1 17.2M1870.9 712.8c0 4.3 3 9 11 9 10.4 0 21.2-8.4 21.2-17.1 0-5.9-5-9.1-11.1-9.1-9.6 0-21.2 8.1-21.2 17.2M531.4 1454c0 4.3 3.1 9 11.2 9 10.3 0 21-8.4 21-17.1 0-5.9-4.9-9.2-11-9.2-9.7 0-21.2 8.2-21.2 17.3M2349.1 650.8c0 4.3 3 9 11.1 9 10.3 0 21.2-8.4 21.2-17.1 0-5.9-5-9.1-11.2-9.1-9.6 0-21 8-21 17.2M2280.8 712.8c0 4.3 3 9 11.1 9 10.3 0 21.1-8.4 21.1-17.1 0-5.9-5-9.1-11-9.1-9.7 0-21.2 8.1-21.2 17.2M2212.5 762.4c0 4.3 3 9 11 9 10.4 0 21.2-8.4 21.2-17.1 0-5.9-5-9.1-11.1-9.1-9.6 0-21.1 8.1-21.1 17.2M2144.1 712.8c0 4.3 3.1 9 11.2 9 10.3 0 21-8.4 21-17.1 0-5.9-4.9-9.1-11-9.1-9.7 0-21.2 8.1-21.2 17.2M2075.8 650.8c0 4.3 3 9 11.1 9 10.3 0 21.2-8.4 21.2-17.1 0-5.9-5-9.1-11.2-9.1-9.6 0-21 8-21 17.2M2007.5 712.8c0 4.3 3 9 11.1 9 10.3 0 21.1-8.4 21.1-17.1 0-5.9-5-9.1-11-9.1-9.7 0-21.2 8.1-21.2 17.2M1939.2 762.4c0 4.3 3 9 11 9 10.4 0 21.2-8.4 21.2-17.1 0-5.9-5-9.1-11.1-9.1-9.6 0-21.1 8.1-21.1 17.2M956 1454c0 4.3 3 9 11 9 10.4 0 21.2-8.4 21.2-17.1 0-5.9-5-9.2-11.1-9.2-9.7 0-21.2 8.2-21.2 17.3M1451.2 1416.8c0 4.3 3 9 11.1 9 10.3 0 21.1-8.4 21.1-17.1 0-6-5-9.2-11-9.2-9.7 0-21.2 8.2-21.2 17.3M1380.4 1454c0 4.3 3.1 9 11.2 9 10.3 0 21-8.4 21-17.1 0-5.9-4.9-9.2-11-9.2-9.7 0-21.2 8.2-21.2 17.3M1309.7 1503.6c0 4.3 3 9 11.1 9 10.3 0 21.1-8.4 21.1-17.1 0-5.9-5-9.2-11-9.2-9.7 0-21.2 8.2-21.2 17.3M1239 1454c0 4.3 3 9 11 9 10.4 0 21.2-8.4 21.2-17.1 0-5.9-5-9.2-11.1-9.2-9.7 0-21.2 8.2-21.2 17.3M1485.6 750c0 4.3 3 9 11 9 10.4 0 21.2-8.4 21.2-17.1 0-5.9-5-9.1-11.1-9.1-9.6 0-21.2 8.1-21.2 17.2M1168.2 1416.8c0 4.3 3 9 11.1 9 10.3 0 21.1-8.4 21.1-17.1 0-6-5-9.2-11-9.2-9.7 0-21.2 8.2-21.2 17.3M1097.4 1454c0 4.3 3.1 9 11.2 9 10.3 0 21-8.4 21-17.1 0-5.9-4.9-9.2-11-9.2-9.7 0-21.2 8.2-21.2 17.3M1026.7 1503.6c0 4.3 3 9 11.1 9 10.3 0 21.1-8.4 21.1-17.1 0-5.9-5-9.2-11-9.2-9.7 0-21.2 8.2-21.2 17.3M929.3 3023.3c0 4.2 3.1 9 11.2 9 10.3 0 21-8.5 21-17.2 0-5.8-4.9-9.1-11-9.1-9.7 0-21.2 8.1-21.2 17.3M885.2 1416.8c0 4.3 3 9 11.1 9 10.3 0 21.1-8.4 21.1-17.1 0-6-5-9.2-11-9.2-9.7 0-21.2 8.2-21.2 17.3M814.4 1454c0 4.3 3.1 9 11.2 9 10.3 0 21-8.4 21-17.1 0-5.9-4.9-9.2-11-9.2-9.7 0-21.2 8.2-21.2 17.3M2520.5 3665.2c0 4.3 3 9 11 9 10.4 0 21.2-8.4 21.2-17.1 0-5.9-5-9.2-11.1-9.2-9.6 0-21.1 8.2-21.1 17.3M743.7 1503.6c0 4.3 3 9 11.1 9 10.3 0 21.1-8.4 21.1-17.1 0-5.9-5-9.2-11-9.2-9.7 0-21.2 8.2-21.2 17.3M1665.9 762.4c0 4.3 3 9 11 9 10.4 0 21.2-8.4 21.2-17.1 0-5.9-5-9.1-11-9.1-9.7 0-21.2 8.1-21.2 17.2M673 1454c0 4.3 3 9 11 9 10.4 0 21.2-8.4 21.2-17.1 0-5.9-5-9.2-11.1-9.2-9.7 0-21.2 8.2-21.2 17.3M602.2 1416.8c0 4.3 3 9 11.1 9 10.3 0 21.1-8.4 21.1-17.1 0-6-5-9.2-11-9.2-9.7 0-21.2 8.2-21.2 17.3M1946.8 2282c0 4.3 3 9.1 11.1 9.1 10.3 0 21.1-8.4 21.1-17.2 0-5.8-5-9-11-9-9.7 0-21.2 8-21.2 17.2M2483.6 2220c0 4.3 3 9 11.1 9 10.3 0 21.1-8.3 21.1-17 0-6-5-9.2-11-9.2-9.7 0-21.2 8.1-21.2 17.3M2430.7 2170.5c0 4.2 3 9 11 9 10.4 0 21.2-8.4 21.2-17.2 0-5.8-5-9.1-11.1-9.1-9.6 0-21.1 8.1-21.1 17.3M2375.9 2133.3c0 4.2 3 9 11 9 10.4 0 21.2-8.5 21.2-17.2 0-5.8-5-9.1-11.1-9.1-9.6 0-21.1 8.1-21.1 17.3M2321 2170.5c0 4.2 3.1 9 11.2 9 10.3 0 21.1-8.4 21.1-17.2 0-5.8-5-9.1-11.1-9.1-9.6 0-21.1 8.1-21.1 17.3M2268.2 2220c0 4.3 3 9 11 9 10.4 0 21.2-8.3 21.2-17 0-6-5-9.2-11.1-9.2-9.6 0-21.1 8.1-21.1 17.3M870.6 675.6c0 4.3 3.1 9 11.1 9 10.4 0 21.2-8.4 21.2-17.1 0-5.9-5-9.1-11.1-9.1-9.7 0-21.2 8.1-21.2 17.2M2070.3 2264.4c-13.7 0-18.6 7-18.6 13.4s4.9 13.4 18.6 13.4 18.4-7 18.4-13.4-4.7-13.4-18.4-13.4m5 23a14 14 0 0 1-4.2.6c-2.8 0-4.7-.8-6-3.2s-3-8.9-3.2-11.6q-.3-3.8 3.2-5a14 14 0 0 1 4.3-.6c2.7 0 4.5.6 6 3.3 1.3 2.6 3.1 9 3.1 11.5q.2 3.9-3.2 5M939 737.6c0 4.3 3 9 11 9 10.4 0 21.2-8.4 21.2-17.1 0-5.9-5-9.1-11.1-9.1-9.6 0-21.1 8.1-21.1 17.2M2536.5 2170.5c0 4.2 3 9 11.1 9 10.3 0 21.1-8.4 21.1-17.2 0-5.8-5-9.1-11-9.1-9.7 0-21.2 8.1-21.2 17.3M1902.2 2220c0 4.3 3 9 11 9 10.4 0 21.2-8.3 21.2-17 0-6-5-9.2-11.1-9.2-9.6 0-21.1 8.1-21.1 17.3M1857.5 2282c0 4.3 3.1 9.1 11.2 9.1 10.3 0 21-8.4 21-17.2 0-5.8-4.9-9-11-9-9.7 0-21.2 8-21.2 17.2M1813 2331.7c0 4.3 3 9 11 9 10.3 0 21.2-8.4 21.2-17.1 0-6-5-9.2-11.2-9.2-9.6 0-21 8.2-21 17.3M1768.3 2282c0 4.3 3 9.1 11 9.1 10.4 0 21.2-8.4 21.2-17.2 0-5.8-5-9-11-9-9.7 0-21.2 8-21.2 17.2M1723.7 2220c0 4.3 3 9 11 9 10.4 0 21.2-8.3 21.2-17 0-6-5-9.2-11.1-9.2-9.6 0-21.1 8.1-21.1 17.3M1679 2282c0 4.3 3 9.1 11.1 9.1 10.3 0 21.2-8.4 21.2-17.2 0-5.8-5-9-11.2-9-9.6 0-21 8-21 17.2M1634.4 2331.7c0 4.3 3 9 11.1 9 10.3 0 21.1-8.4 21.1-17.1 0-6-5-9.2-11-9.2-9.7 0-21.2 8.2-21.2 17.3M951.6 2244.9c0 4.2 3 9 11.1 9 10.3 0 21.2-8.4 21.2-17.2 0-5.8-5-9-11.1-9-9.7 0-21.2 8-21.2 17.2M2591.3 2133.3c0 4.2 3 9 11.1 9 10.3 0 21.1-8.5 21.1-17.2 0-5.8-5-9.1-11-9.1-9.7 0-21.2 8.1-21.2 17.3M2646.1 2170.5c0 4.2 3 9 11.1 9 10.3 0 21.1-8.4 21.1-17.2 0-5.8-5-9.1-11-9.1-9.7 0-21.2 8.1-21.2 17.3M802.3 737.6c0 4.3 3 9 11.1 9 10.3 0 21.2-8.4 21.2-17.1 0-5.9-5-9.1-11.2-9.1-9.6 0-21 8.1-21 17.2M1797.5 3727.2c0 4.3 3 9 11.1 9 10.3 0 21.1-8.4 21.1-17.1 0-5.9-5-9.2-11-9.2-9.7 0-21.2 8.2-21.2 17.3M1652.9 3776.8c0 4.3 3 9 11.1 9 10.3 0 21.1-8.4 21.1-17.1 0-5.9-5-9.1-11-9.1-9.7 0-21.2 8-21.2 17.2M734 787.2c0 4.3 3 9 11.1 9 10.3 0 21.1-8.4 21.1-17.1 0-5.9-5-9.1-11-9.1-9.7 0-21.2 8.1-21.2 17.2M460.7 2961.2c0 4.3 3 9 11.1 9 10.3 0 21.1-8.4 21.1-17.1 0-5.9-5-9.1-11-9.1-9.7 0-21.2 8.1-21.2 17.2M508.9 2911.6c0 4.3 3 9 11 9 10.4 0 21.2-8.4 21.2-17.1 0-5.9-5-9.1-11.1-9.1-9.6 0-21.1 8.1-21.1 17.2M563.7 2874.4c0 4.3 3 9 11 9 10.4 0 21.2-8.4 21.2-17.1 0-5.9-5-9.1-11.1-9.1-9.6 0-21.1 8.1-21.1 17.2M618.5 2911.6c0 4.3 3 9 11 9 10.4 0 21.2-8.4 21.2-17.1 0-5.9-5-9.1-11.1-9.1-9.6 0-21.1 8.1-21.1 17.2M666.7 2961.2c0 4.3 3 9 11 9 10.4 0 21.2-8.4 21.2-17.1 0-5.9-5-9.1-11.1-9.1-9.6 0-21.1 8.1-21.1 17.2M714.8 2911.6c0 4.3 3.1 9 11.2 9 10.3 0 21-8.4 21-17.1 0-5.9-4.9-9.1-11-9.1-9.7 0-21.2 8.1-21.2 17.2M769.6 2874.4c0 4.3 3.1 9 11.2 9 10.3 0 21-8.4 21-17.1 0-5.9-4.9-9.1-11-9.1-9.7 0-21.2 8.1-21.2 17.2M824.4 2911.6c0 4.3 3.1 9 11.2 9 10.3 0 21-8.4 21-17.1 0-5.9-4.9-9.1-11-9.1-9.7 0-21.2 8.1-21.2 17.2M977.5 2973.6c0 4.3 3 9 11.1 9 10.3 0 21.2-8.4 21.2-17.1 0-5.9-5-9.1-11.1-9.1-9.7 0-21.2 8.1-21.2 17.2M1589.8 2282c0 4.3 3 9.1 11 9.1 10.4 0 21.2-8.4 21.2-17.2 0-5.8-5-9-11.1-9-9.6 0-21.1 8-21.1 17.2M907 2232.5c0 4.2 3 9 11.1 9 10.3 0 21.1-8.4 21.1-17.2 0-5.8-5-9.1-11-9.1-9.7 0-21.2 8.1-21.2 17.3M996.3 2257.3c0 4.2 3 9 11 9 10.4 0 21.2-8.4 21.2-17.2 0-5.8-5-9-11.1-9-9.6 0-21.1 8-21.1 17.2M1040.9 2269.7c0 4.2 3 9 11 9 10.4 0 21.2-8.4 21.2-17.2 0-5.8-5-9-11-9-9.7 0-21.2 8-21.2 17.2M1085.5 2282c0 4.3 3 9.1 11.1 9.1 10.3 0 21.2-8.4 21.2-17.2 0-5.8-5-9-11.2-9-9.6 0-21 8-21 17.2M1130.1 2294.5c0 4.2 3.1 9 11.2 9 10.3 0 21-8.4 21-17.2 0-5.8-4.9-9-11-9-9.7 0-21.2 8-21.2 17.2M2086.7 3727.2c0 4.3 3 9 11 9 10.4 0 21.2-8.4 21.2-17.1 0-5.9-5-9.2-11-9.2-9.7 0-21.2 8.2-21.2 17.3M1007.3 787.2c0 4.3 3 9 11 9 10.4 0 21.2-8.4 21.2-17.1 0-5.9-5-9.1-11-9.1-9.7 0-21.2 8.1-21.2 17.2M1277.4 2331.7c0 4.3 3 9 11 9 10.4 0 21.2-8.4 21.2-17.1 0-6-5-9.2-11.1-9.2-9.6 0-21.2 8.2-21.2 17.3M1322 2282c0 4.3 3 9.1 11 9.1 10.4 0 21.2-8.4 21.2-17.2 0-5.8-5-9-11-9-9.7 0-21.2 8-21.2 17.2M1411.2 2282c0 4.3 3.1 9.1 11.2 9.1 10.3 0 21-8.4 21-17.2 0-5.8-4.9-9-11-9-9.7 0-21.2 8-21.2 17.2M1500.5 2282c0 4.3 3 9.1 11.1 9.1 10.3 0 21.1-8.4 21.1-17.2 0-5.8-5-9-11-9-9.7 0-21.2 8-21.2 17.2M1545.1 2220c0 4.3 3.1 9 11.1 9 10.4 0 21.2-8.3 21.2-17 0-6-5-9.2-11.1-9.2-9.7 0-21.2 8.1-21.2 17.3M1942 3665.2c0 4.3 3.2 9 11.2 9 10.3 0 21.1-8.4 21.1-17.1 0-5.9-5-9.2-11-9.2-9.7 0-21.2 8.2-21.2 17.3M1455.9 2331.7c0 4.3 3 9 11 9 10.4 0 21.2-8.4 21.2-17.1 0-6-5-9.2-11.1-9.2-9.6 0-21.1 8.2-21.1 17.3" class="Note"/><path d="M291.4 1994.6c0 7.1-2.9 14.3-9.9 17.2l-5.5-32c9 0 15.4 6 15.4 14.8m-14 18.4q-3 .6-5.8.6c-14.2 0-26.3-10-26.3-25 0-12 8.5-22.8 17.3-30.4l4.7-4.3 2.3 14c-9 2.8-15.2 12.3-15.2 21.6 0 7 5.5 16.5 13.4 16.5.8 0 1.7-.4 1.7-1.3s-1-1.4-2.2-2.2c-3.9-2.4-6-5-6-9.8 0-6 4.4-11 10.3-12.3zm-8.7-102c1-4 5.5-14.4 10.6-14.4 1.5 0 3.9 4.9 3.9 11.7 0 10.4-7.6 18-14.5 24.8q-1-5.8-1-12-.1-5.4 1-10m-20.8 132.4c0 6.5 5 15.2 18.4 15.2a23 23 0 0 0 12.3-3.4c5.4-3.8 6.8-10.3 6.8-16.6 0-3.9-.6-8.3-1.6-14q-.6-3-1.5-8.8c9.7-3.2 17-13.3 17-23.5a24 24 0 0 0-25.1-25.1l-3-17.4a56 56 0 0 0 17.8-39.2c0-9-2.7-16.4-4.3-20-2.4-5-5.3-8.5-7-8.5-.8 0-3.8 1.2-7.1 5.1-6.4 7.5-8.1 20.2-8.1 28.6 0 5.3.5 10.2 2.1 21.3 0 .1-5.2 5.4-7.3 7-9 8.5-21.5 20.5-21.5 40.3a34 34 0 0 0 34.6 33.2q4.4 0 7.8-.7c2 9.5 3 16.4 3 21.7q-.1 15.6-15.3 15.8c-2.4 0-4.4-.5-4.6-.5l-.3-.3q0-.3.5-.4a11 11 0 0 0 9.3-11c0-5.4-4-11-11.5-11-7 0-11.4 5.6-11.4 12.2M291.4 2773.1c0 7-2.9 14.3-9.9 17.2l-5.5-32c9 0 15.4 6 15.4 14.8m-14 18.4q-3 .6-5.8.6c-14.2 0-26.3-10-26.3-25 0-12 8.5-22.8 17.3-30.4l4.7-4.3 2.3 14c-9 2.7-15.2 12.2-15.2 21.6 0 7 5.5 16.4 13.4 16.4.8 0 1.7-.4 1.7-1.2 0-1-1-1.4-2.2-2.2-3.9-2.4-6-5-6-9.9 0-6 4.4-10.9 10.3-12.3zm-8.7-102c1-4 5.5-14.4 10.6-14.4 1.5 0 3.9 4.9 3.9 11.7 0 10.3-7.6 18-14.5 24.8q-1-5.9-1-12-.1-5.5 1-10.1m-20.8 132.4c0 6.6 5 15.2 18.4 15.2a23 23 0 0 0 12.3-3.3c5.4-3.8 6.8-10.4 6.8-16.6q0-5.7-1.6-14-.6-3-1.5-8.8c9.7-3.2 17-13.3 17-23.6a24 24 0 0 0-25.1-25l-3-17.4a56 56 0 0 0 17.8-39.2c0-9-2.7-16.4-4.3-20-2.4-5-5.3-8.5-7-8.5-.8 0-3.8 1.2-7.1 5-6.4 7.6-8.1 20.3-8.1 28.6 0 5.4.5 10.3 2.1 21.4 0 0-5.2 5.3-7.3 7-9 8.5-21.5 20.5-21.5 40.3a34 34 0 0 0 34.6 33.1q4.4 0 7.8-.6c2 9.5 3 16.4 3 21.7q-.1 15.6-15.3 15.8c-2.4 0-4.4-.5-4.6-.5l-.3-.3q0-.3.5-.4a11 11 0 0 0 9.3-11c0-5.4-4-11-11.5-11-7 0-11.4 5.6-11.4 12.1M291.4 1228.7c0 7-2.9 14.3-9.9 17.2l-5.5-32.1c9 0 15.4 6 15.4 14.9m-14 18.3q-3 .6-5.8.6c-14.2 0-26.3-9.9-26.3-24.9 0-12 8.5-22.9 17.3-30.4l4.7-4.4 2.3 14.1c-9 2.7-15.2 12.2-15.2 21.5 0 7 5.5 16.5 13.4 16.5.8 0 1.7-.4 1.7-1.3q-.2-1.2-2.2-2.2c-3.9-2.4-6-5-6-9.8 0-6 4.4-11 10.3-12.3zm-8.7-102c1-4 5.5-14.3 10.6-14.3 1.5 0 3.9 4.8 3.9 11.7 0 10.3-7.6 18-14.5 24.8q-1-6-1-12-.1-5.5 1-10.2m-20.8 132.5c0 6.6 5 15.2 18.4 15.2a23 23 0 0 0 12.3-3.4c5.4-3.8 6.8-10.3 6.8-16.6q0-5.6-1.6-14-.6-3-1.5-8.8c9.7-3.2 17-13.3 17-23.5a24 24 0 0 0-25.1-25.1l-3-17.4a56 56 0 0 0 17.8-39.2c0-9-2.7-16.3-4.3-19.9-2.4-5-5.3-8.5-7-8.5-.8 0-3.8 1.2-7.1 5-6.4 7.6-8.1 20.3-8.1 28.6 0 5.4.5 10.2 2.1 21.3 0 .1-5.2 5.4-7.3 7-9 8.5-21.5 20.5-21.5 40.4a34 34 0 0 0 34.6 33.1q4.4 0 7.8-.7 3 14 3 21.7-.1 15.7-15.3 15.8c-2.4 0-4.4-.5-4.6-.5l-.3-.3q0-.3.5-.4a11 11 0 0 0 9.3-11c0-5.3-4-11-11.5-11-7 0-11.4 5.7-11.4 12.2M291.4 462.7c0 7-2.9 14.3-9.9 17.2l-5.5-32c9 0 15.4 6 15.4 14.8m-14 18.4q-3 .6-5.8.6c-14.2 0-26.3-10-26.3-25 0-12 8.5-22.9 17.3-30.4l4.7-4.4 2.3 14.1c-9 2.7-15.2 12.2-15.2 21.6 0 7 5.5 16.4 13.4 16.4.8 0 1.7-.4 1.7-1.3q-.2-1.2-2.2-2.1c-3.9-2.4-6-5-6-9.9 0-6 4.4-10.9 10.3-12.3zm-8.7-102c1-4 5.5-14.4 10.6-14.4 1.5 0 3.9 4.8 3.9 11.7 0 10.3-7.6 18-14.5 24.8q-1-5.9-1-12-.1-5.5 1-10.1m-20.8 132.4c0 6.6 5 15.2 18.4 15.2a23 23 0 0 0 12.3-3.4c5.4-3.7 6.8-10.3 6.8-16.5q0-5.7-1.6-14-.6-3-1.5-8.9c9.7-3.1 17-13.3 17-23.5a24 24 0 0 0-25.1-25l-3-17.4a56 56 0 0 0 17.8-39.2c0-9-2.7-16.4-4.3-20-2.4-5-5.3-8.5-7-8.5-.8 0-3.8 1.2-7.1 5-6.4 7.6-8.1 20.3-8.1 28.6 0 5.4.5 10.3 2.1 21.4 0 0-5.2 5.3-7.3 7-9 8.4-21.5 20.4-21.5 40.3a34 34 0 0 0 34.6 33.1q4.4 0 7.8-.7c2 9.6 3 16.5 3 21.8q-.1 15.6-15.3 15.7c-2.4 0-4.4-.5-4.6-.5l-.3-.2q0-.4.5-.4a11 11 0 0 0 9.3-11c0-5.4-4-11-11.5-11-7 0-11.4 5.6-11.4 12.1M291.4 3539.1c0 7-2.9 14.3-9.9 17.2l-5.5-32c9 0 15.4 6 15.4 14.8m-14 18.4q-3 .6-5.8.6c-14.2 0-26.3-10-26.3-25 0-12 8.5-22.9 17.3-30.4l4.7-4.4 2.3 14.1c-9 2.7-15.2 12.2-15.2 21.6 0 6.9 5.5 16.4 13.4 16.4.8 0 1.7-.4 1.7-1.3q-.2-1.2-2.2-2.2c-3.9-2.3-6-5-6-9.8 0-6 4.4-10.9 10.3-12.3zm-8.7-102c1-4 5.5-14.4 10.6-14.4 1.5 0 3.9 4.8 3.9 11.7 0 10.3-7.6 18-14.5 24.8q-1-5.8-1-12-.1-5.5 1-10.1m-20.8 132.4c0 6.6 5 15.2 18.4 15.2a23 23 0 0 0 12.3-3.4c5.4-3.7 6.8-10.3 6.8-16.5q0-5.8-1.6-14-.6-3-1.5-8.9c9.7-3.1 17-13.3 17-23.5a24 24 0 0 0-25.1-25l-3-17.4a56 56 0 0 0 17.8-39.2c0-9-2.7-16.4-4.3-20-2.4-5-5.3-8.5-7-8.5-.8 0-3.8 1.2-7.1 5-6.4 7.6-8.1 20.3-8.1 28.6 0 5.4.5 10.2 2.1 21.4 0 0-5.2 5.3-7.3 7-9 8.4-21.5 20.4-21.5 40.3a34 34 0 0 0 34.6 33.1q4.4 0 7.8-.7c2 9.6 3 16.5 3 21.8q-.1 15.6-15.3 15.7c-2.4 0-4.4-.5-4.6-.5l-.3-.3q0-.3.5-.4a11 11 0 0 0 9.3-11c0-5.3-4-11-11.5-11-7 0-11.4 5.7-11.4 12.2M260.9 2957c-7.6 0-13.6 4.3-13.7 4.3a23 23 0 0 0-9.6 18q0 3.7 1.2 6.5 1.9 4 6.5 5.6 1.8.6 3.8.6a13 13 0 0 0 6.3-1.7c3-1.7 5-5.3 5-9.1a10 10 0 0 0-4.8-8.6 10 10 0 0 0-9-1.2c-1 .3-2.6 1.3-3.4 2 .3-1.9 1.5-4.7 2.6-6.3 1-1.6 3.3-3.6 5-4.5a19 19 0 0 1 9-2q15.2 0 15.2 24.8a55 55 0 0 1-6.5 24 59 59 0 0 1-11.5 16.2 85 85 0 0 1-20.1 14s-1.2.6-1.2 1.8v.5c.4 1 1.3 1.2 1.9 1.2l.5-.1s11.4-4.7 20.4-11.7q7.6-5.5 13.6-12 5.3-5.8 9.1-12.1a45 45 0 0 0 6.8-21.9q0-12.4-6.2-19.9-7-8.4-21-8.4m31.2 12.6c0 2.8 2.2 5 4.8 5s4.7-2.2 4.7-5-2.1-5-4.7-5-4.8 2.2-4.8 5m0 24.5c0 2.7 2.2 5 4.8 5s4.7-2.3 4.7-5-2.1-5-4.7-5-4.8 2.2-4.8 5M260.9 1412.5c-7.6 0-13.6 4.4-13.7 4.4a23 23 0 0 0-9.6 18q0 3.6 1.2 6.5 1.9 4.1 6.5 5.5 1.8.7 3.8.7a13 13 0 0 0 6.3-1.7c3-1.7 5-5.3 5-9.2a10 10 0 0 0-4.8-8.5 10 10 0 0 0-9-1.3c-1 .4-2.6 1.4-3.4 2.1.3-1.9 1.5-4.8 2.6-6.4 1-1.5 3.3-3.5 5-4.4a19 19 0 0 1 9-2q15.2-.1 15.2 24.8a55 55 0 0 1-6.5 24 59 59 0 0 1-11.5 16.2 85 85 0 0 1-20.1 13.9s-1.2.7-1.2 1.9v.5c.4 1 1.3 1.1 1.9 1.1h.5s11.4-4.7 20.4-11.8q7.6-5.4 13.6-11.9 5.3-5.8 9.1-12.2a45 45 0 0 0 6.8-21.8q0-12.4-6.2-20-7-8.3-21-8.4m31.2 12.6c0 2.8 2.2 5 4.8 5s4.7-2.2 4.7-5-2.1-5-4.7-5-4.8 2.2-4.8 5m0 24.5c0 2.8 2.2 5.1 4.8 5.1s4.7-2.3 4.7-5-2.1-5.1-4.7-5.1-4.8 2.3-4.8 5M260.9 646.6c-7.6 0-13.6 4.3-13.7 4.3a23 23 0 0 0-9.6 18q0 3.7 1.2 6.5 1.9 4 6.5 5.6 1.8.6 3.8.6a13 13 0 0 0 6.3-1.7c3-1.7 5-5.3 5-9.1a10 10 0 0 0-4.8-8.6 10 10 0 0 0-9-1.3c-1 .4-2.6 1.4-3.4 2.1.3-1.9 1.5-4.7 2.6-6.3 1-1.6 3.3-3.6 5-4.5a19 19 0 0 1 9-2q15.2 0 15.2 24.8a55 55 0 0 1-6.5 24 59 59 0 0 1-11.5 16.2 85 85 0 0 1-20.1 14s-1.2.6-1.2 1.8v.5c.4 1 1.3 1.2 1.9 1.2l.5-.1s11.4-4.7 20.4-11.7q7.6-5.5 13.6-12 5.3-5.8 9.1-12.1a45 45 0 0 0 6.8-21.9q0-12.4-6.2-20-7-8.3-21-8.3M292 659c0 2.8 2.2 5 4.8 5s4.7-2.2 4.7-5-2.1-5-4.7-5-4.8 2.3-4.8 5m0 24.6c0 2.7 2.2 5 4.8 5s4.7-2.3 4.7-5-2.1-5.1-4.7-5.1-4.8 2.3-4.8 5M260.9 2191c-7.6 0-13.6 4.4-13.7 4.4a23 23 0 0 0-9.6 18q0 3.6 1.2 6.5 1.9 4 6.5 5.5 1.8.6 3.8.6a13 13 0 0 0 6.3-1.7c3-1.7 5-5.2 5-9.1a10 10 0 0 0-4.8-8.5 10 10 0 0 0-9-1.3c-1 .4-2.6 1.4-3.4 2 .3-1.8 1.5-4.7 2.6-6.3 1-1.6 3.3-3.6 5-4.5a19 19 0 0 1 9-2q15.2 0 15.2 24.9a55 55 0 0 1-6.5 23.9 59 59 0 0 1-11.5 16.3 85 85 0 0 1-20.1 13.9s-1.2.6-1.2 1.8v.5c.4 1 1.3 1.2 1.9 1.2h.5s11.4-4.7 20.4-11.8q7.6-5.5 13.6-11.9 5.3-5.9 9.1-12.2a45 45 0 0 0 6.8-21.8q0-12.6-6.2-20-7-8.3-21-8.4m31.2 12.6c0 2.8 2.2 5 4.8 5s4.7-2.2 4.7-5-2.1-5-4.7-5-4.8 2.2-4.8 5m0 24.5c0 2.8 2.2 5 4.8 5s4.7-2.2 4.7-5-2.1-5-4.7-5-4.8 2.2-4.8 5M260.9 3723c-7.6 0-13.6 4.3-13.7 4.3a23 23 0 0 0-9.6 18q0 3.6 1.2 6.5 1.9 4 6.5 5.6 1.8.6 3.8.6a13 13 0 0 0 6.3-1.7c3-1.7 5-5.3 5-9.2a10 10 0 0 0-4.8-8.5 10 10 0 0 0-9-1.3c-1 .4-2.6 1.4-3.4 2.1.3-1.9 1.5-4.8 2.6-6.3 1-1.6 3.3-3.6 5-4.5a19 19 0 0 1 9-2q15.2-.1 15.2 24.8a55 55 0 0 1-6.5 24 59 59 0 0 1-11.5 16.2 85 85 0 0 1-20.1 13.9s-1.2.7-1.2 1.9v.5c.4 1 1.3 1.2 1.9 1.2l.5-.1s11.4-4.7 20.4-11.8q7.6-5.4 13.6-11.9 5.3-5.8 9.1-12.2a45 45 0 0 0 6.8-21.8q0-12.4-6.2-20-7-8.3-21-8.4m31.2 12.6c0 2.8 2.2 5 4.8 5s4.7-2.2 4.7-5-2.1-5-4.7-5-4.8 2.3-4.8 5m0 24.5c0 2.8 2.2 5.1 4.8 5.1s4.7-2.3 4.7-5-2.1-5.1-4.7-5.1-4.8 2.3-4.8 5" class="Clef"/><path d="M343.2 3452.2q1.1-.3 1.2-1.4v-5.8q-.2-1.3-1.4-1.4h-.2l-3.3.7v-14.8h-2.8v15.3l-8.8 1.8v-14H325v14.6l-3.9.8q-1 .3-1 1.4v6-.2q0 1.3 1.3 1.4h.3l3.3-.7v16.3l-3.9.8q-1 .3-1 1.4v5.8q0 1.3 1.3 1.4h.3l3.3-.7v14.7h2.8v-15.3l8.8-1.8v14h2.8v-14.6l3.7-.7q1.1-.3 1.2-1.4v-5.8q-.2-1.3-1.4-1.4h-.2l-3.3.7v-16.4zm-15.3 3 8.8-1.7v16.3l-8.8 2zM370.4 3489.4q1-.3 1.1-1.4v-5.8q-.1-1.3-1.4-1.4h-.2l-3.2.7v-14.8h-2.8v15.3l-8.9 1.8v-14h-2.7v14.6l-3.9.8q-1 .3-1 1.4v6-.2q0 1.3 1.3 1.4h.3l3.3-.7v16.3l-3.9.8q-1 .3-1 1.4v5.8q0 1.3 1.3 1.4h.3l3.3-.7v14.7h2.7v-15.3l8.9-1.8v14h2.8V3515l3.7-.7q1-.3 1.1-1.4v-5.8q-.1-1.3-1.4-1.4h-.2l-3.2.7V3490zm-15.4 3 8.9-1.7v16.3l-8.9 2zM397.6 3439.8q1-.3 1-1.4v-5.9q0-1.2-1.3-1.4h-.2l-3.3.7v-14.7H391v15.3l-8.8 1.8v-14h-2.8v14.6l-3.8.8q-1 .3-1.1 1.4v6-.2q.1 1.2 1.4 1.4h.3l3.2-.7v16.3l-3.8.8q-1 .3-1.1 1.4v5.8q.1 1.3 1.4 1.3h.3l3.2-.6v14.7h2.8V3468l8.8-1.8v14h2.8v-14.6l3.8-.7q1-.3 1-1.4v-5.9q0-1.3-1.3-1.3h-.2l-3.3.7v-16.4zm-15.4 3 8.8-1.7v16.3l-8.8 2zM343.2 1141.8q1.1-.3 1.2-1.4v-5.9q-.2-1.3-1.4-1.4h-.2l-3.3.7V1119h-2.8v15.4l-8.8 1.8v-14H325v14.6l-3.9.8q-1 .3-1 1.4v6-.3q0 1.3 1.3 1.4h.3l3.3-.7v16.4l-3.9.8q-1 .3-1 1.4v5.8q0 1.2 1.3 1.3h.3l3.3-.6v14.7h2.8v-15.4l8.8-1.7v14h2.8v-14.6l3.7-.7q1.1-.3 1.2-1.4v-5.9q-.2-1.3-1.4-1.4h-.2l-3.3.7v-16.3zm-15.3 3 8.8-1.7v16.3l-8.8 2zM370.4 1179q1-.3 1.1-1.4v-5.9q-.1-1.3-1.4-1.4h-.2l-3.2.7v-14.8h-2.8v15.4l-8.9 1.8v-14h-2.7v14.6l-3.9.8q-1 .3-1 1.4v6-.3q0 1.3 1.3 1.4h.3l3.3-.7v16.4l-3.9.8q-1 .3-1 1.4v5.8q0 1.2 1.3 1.3h.3l3.3-.6v14.7h2.7V1207l8.9-1.7v14h2.8v-14.6l3.7-.7q1-.3 1.1-1.4v-5.9q-.1-1.3-1.4-1.4h-.2l-3.2.7v-16.3zm-15.4 3 8.9-1.7v16.3l-8.9 2zM397.6 1129.4q1-.3 1-1.4v-5.9q0-1.3-1.3-1.4h-.2l-3.3.7v-14.8H391v15.4l-8.8 1.8v-14h-2.8v14.6l-3.8.8q-1 .3-1.1 1.4v6-.3q.1 1.3 1.4 1.4h.3l3.2-.7v16.4l-3.8.8q-1 .3-1.1 1.4v5.8q.1 1.2 1.4 1.3h.3l3.2-.6v14.7h2.8v-15.4l8.8-1.7v14h2.8V1155l3.8-.7q1-.3 1-1.4v-5.9q0-1.3-1.3-1.4h-.2l-3.3.7v-16.3zm-15.4 3 8.8-1.7v16.3l-8.8 2zM343.2 1907.7q1.1-.2 1.2-1.4v-5.8q-.2-1.3-1.4-1.4h-.2l-3.3.7V1885h-2.8v15.4l-8.8 1.8v-14H325v14.6l-3.9.8c-.6 0-1 .8-1 1.4v5.9-.2q0 1.3 1.3 1.4h.3l3.3-.7v16.4l-3.9.8c-.6 0-1 .8-1 1.4v5.7q0 1.3 1.3 1.4h.3l3.3-.7v14.8h2.8v-15.4l8.8-1.8v14h2.8v-14.6l3.7-.7c.7 0 1.2-.7 1.2-1.3v-5.9q-.2-1.3-1.4-1.4h-.2l-3.3.7v-16.4zm-15.3 3.1 8.8-1.8v16.4l-8.8 1.9zM370.4 1945q1-.4 1.1-1.5v-5.8q-.1-1.3-1.4-1.4h-.2l-3.2.7v-14.8h-2.8v15.4l-8.9 1.8v-14h-2.7v14.6l-3.9.8c-.6 0-1 .8-1 1.4v5.9-.2q0 1.3 1.3 1.4h.3l3.3-.7v16.4l-3.9.8c-.6 0-1 .8-1 1.4v5.7q0 1.3 1.3 1.4h.3l3.3-.7v14.8h2.7V1973l8.9-1.8v14h2.8v-14.6l3.7-.7c.6 0 1.1-.7 1.1-1.3v-5.9q-.1-1.3-1.4-1.4h-.2l-3.2.7v-16.4zM355 1948l8.9-1.8v16.4l-8.9 1.9zM397.6 1895.3q1-.2 1-1.4v-5.8q0-1.3-1.3-1.4h-.2l-3.3.7v-14.8H391v15.4l-8.8 1.8v-14h-2.8v14.6l-3.8.8c-.6 0-1.1.8-1.1 1.4v5.9-.2q.1 1.3 1.4 1.4h.3l3.2-.7v16.4l-3.8.8c-.6 0-1.1.8-1.1 1.4v5.7q.1 1.3 1.4 1.4h.3l3.2-.7v14.8h2.8v-15.4l8.8-1.8v14h2.8V1921l3.8-.7c.6 0 1-.7 1-1.3v-5.9q0-1.3-1.3-1.4h-.2l-3.3.7V1896zm-15.4 3.1 8.8-1.8v16.4l-8.8 1.9zM343.2 375.8c.7 0 1.2-.8 1.2-1.4v-5.8q-.2-1.3-1.4-1.4h-.2l-3.3.7V353h-2.8v15.4l-8.8 1.8v-14H325v14.5l-3.9.8q-1 .3-1 1.4v6-.2q0 1.3 1.3 1.4h.3l3.3-.7v16.3l-3.9.8q-1 .3-1 1.4v5.8q0 1.3 1.3 1.4h.3l3.3-.7v14.8h2.8v-15.4l8.8-1.8v14h2.8v-14.6l3.7-.7q1.1-.3 1.2-1.4v-5.8q-.2-1.3-1.4-1.4h-.2l-3.3.7v-16.4zm-15.3 3 8.8-1.7v16.4l-8.8 1.9zM370.4 413c.6 0 1.1-.8 1.1-1.4v-5.8q-.1-1.3-1.4-1.4h-.2l-3.2.7v-14.8h-2.8v15.4l-8.9 1.8v-14h-2.7V408l-3.9.8q-1 .3-1 1.4v6-.2q0 1.3 1.3 1.4h.3l3.3-.7V433l-3.9.7q-1 .3-1 1.4v5.8q0 1.3 1.3 1.4h.3l3.3-.7v14.8h2.7V441l8.9-1.8v14h2.8v-14.6l3.7-.7q1-.3 1.1-1.4v-5.8q-.1-1.3-1.4-1.4h-.2l-3.2.7v-16.4zm-15.4 3 8.9-1.7v16.4l-8.9 1.9zM397.6 363.4c.6 0 1-.8 1-1.4v-5.8q0-1.3-1.3-1.4h-.2l-3.3.7v-14.8H391V356l-8.8 1.8v-14h-2.8v14.5l-3.8.8q-1 .3-1.1 1.4v6-.2q.1 1.3 1.4 1.4h.3l3.2-.7v16.3l-3.8.8q-1 .3-1.1 1.4v5.8q.1 1.3 1.4 1.4h.3l3.2-.7v14.8h2.8v-15.4l8.8-1.8v14h2.8V389l3.8-.7q1-.3 1-1.4v-5.8q0-1.3-1.3-1.4h-.2l-3.3.7V364zm-15.4 3 8.8-1.7V381l-8.8 1.8zM343.2 2686.2c.7 0 1.2-.8 1.2-1.4v-5.8q-.2-1.3-1.4-1.4h-.2l-3.3.7v-14.8h-2.8v15.4l-8.8 1.8v-14H325v14.6l-3.9.8q-1 .2-1 1.3v6-.2q0 1.3 1.3 1.4h.3l3.3-.7v16.4l-3.9.8q-1 .2-1 1.4v5.7q0 1.3 1.3 1.4h.3l3.3-.7v14.8h2.8v-15.4l8.8-1.8v14h2.8V2712l3.7-.7c.7 0 1.2-.8 1.2-1.4v-5.8q-.2-1.3-1.4-1.4h-.2l-3.3.7v-16.4zm-15.3 3 8.8-1.7v16.4l-8.8 1.9zM370.4 2723.4c.6 0 1.1-.8 1.1-1.4v-5.8q-.1-1.3-1.4-1.4h-.2l-3.2.7v-14.8h-2.8v15.4l-8.9 1.8v-14h-2.7v14.6l-3.9.8c-.6 0-1 .7-1 1.3v6-.2q0 1.3 1.3 1.4h.3l3.3-.7v16.4l-3.9.8q-1 .2-1 1.4v5.7q0 1.3 1.3 1.4h.3l3.3-.7v14.8h2.7v-15.4l8.9-1.8v14h2.8v-14.6l3.7-.7c.6 0 1.1-.8 1.1-1.4v-5.8q-.1-1.3-1.4-1.4h-.2l-3.2.7V2724zm-15.4 3 8.9-1.7v16.4l-8.9 1.9zM397.6 2673.8c.6 0 1-.8 1-1.4v-5.8q0-1.3-1.3-1.4h-.2l-3.3.7V2651H391v15.4l-8.8 1.8v-14h-2.8v14.6l-3.8.7q-1 .4-1.1 1.4v6-.2q.1 1.3 1.4 1.4h.3l3.2-.7v16.4l-3.8.7q-1 .3-1.1 1.4v5.8q.1 1.3 1.4 1.4h.3l3.2-.7v14.8h2.8v-15.4l8.8-1.8v14h2.8v-14.6l3.8-.7c.6 0 1-.8 1-1.4v-5.8q0-1.3-1.3-1.4h-.2l-3.3.7v-16.4zm-15.4 3 8.8-1.7v16.4l-8.8 1.9zM343.2 1427c.7 0 1.2-.8 1.2-1.4v-5.8q-.2-1.3-1.4-1.4h-.2l-3.3.7v-14.8h-2.8v15.4l-8.8 1.8v-14H325v14.6l-3.9.7q-1 .4-1 1.4v6-.2q0 1.3 1.3 1.4h.3l3.3-.7v16.4l-3.9.7q-1 .3-1 1.4v5.8q0 1.3 1.3 1.4h.3l3.3-.7v14.8h2.8V1455l8.8-1.8v14h2.8v-14.6l3.7-.7c.7 0 1.2-.8 1.2-1.4v-5.8q-.2-1.3-1.4-1.4h-.2l-3.3.7v-16.4zm-15.3 3 8.8-1.7v16.4l-8.8 1.9zM370.4 1464.2c.6 0 1.1-.8 1.1-1.4v-5.8q-.1-1.3-1.4-1.4h-.2l-3.2.7v-14.8h-2.8v15.4l-8.9 1.8v-14h-2.7v14.6l-3.9.7q-1 .4-1 1.4v6-.2q0 1.3 1.3 1.4h.3l3.3-.7v16.4l-3.9.7q-1 .3-1 1.4v5.8q0 1.3 1.3 1.4h.3l3.3-.7v14.8h2.7v-15.4l8.9-1.8v14h2.8v-14.6l3.7-.7c.6 0 1.1-.8 1.1-1.4v-5.8q-.1-1.3-1.4-1.4h-.2l-3.2.7v-16.4zm-15.4 3 8.9-1.7v16.4l-8.9 1.9zM397.6 1414.6c.6 0 1-.8 1-1.4v-5.8q0-1.3-1.3-1.4h-.2l-3.3.7v-14.8H391v15.4l-8.8 1.8v-14h-2.8v14.5l-3.8.8q-1 .3-1.1 1.4v6-.2q.1 1.3 1.4 1.4h.3l3.2-.7v16.3l-3.8.8q-1 .3-1.1 1.4v5.8q.1 1.3 1.4 1.4h.3l3.2-.7v14.8h2.8v-15.4l8.8-1.8v14h2.8v-14.6l3.8-.7q1-.3 1-1.4v-5.8q0-1.3-1.3-1.4h-.2l-3.3.7v-16.4zm-15.4 3 8.8-1.7v16.4l-8.8 1.9zM343.2 661c.7 0 1.2-.8 1.2-1.4v-5.8q-.2-1.3-1.4-1.4h-.2l-3.3.7v-14.8h-2.8v15.4l-8.8 1.8v-14H325V656l-3.9.8c-.6 0-1 .8-1 1.4v5.9-.2q0 1.3 1.3 1.4h.3l3.3-.7v16.4l-3.9.8c-.6 0-1 .8-1 1.4v5.7q0 1.3 1.3 1.4h.3l3.3-.7v14.8h2.8V689l8.8-1.8v14h2.8v-14.6l3.7-.7q1.1-.2 1.2-1.4v-5.8q-.2-1.3-1.4-1.4h-.2l-3.3.7v-16.4zm-15.3 3.1 8.8-1.8v16.4l-8.8 1.9zM370.4 698.2q1-.2 1.1-1.4V691q-.1-1.3-1.4-1.4h-.2l-3.2.7v-14.8h-2.8V691l-8.9 1.8v-14h-2.7v14.6l-3.9.8c-.6 0-1 .8-1 1.4v5.9-.2q0 1.3 1.3 1.4h.3l3.3-.7v16.4l-3.9.8c-.6 0-1 .8-1 1.4v5.7q0 1.3 1.3 1.4h.3l3.3-.7v14.8h2.7v-15.4l8.9-1.8v14h2.8V724l3.7-.7q1-.2 1.1-1.3V716q-.1-1.3-1.4-1.4h-.2l-3.2.7V699zm-15.4 3.1 8.9-1.8V716l-8.9 1.9zM397.6 648.6c.6 0 1-.8 1-1.4v-5.8q0-1.3-1.3-1.4h-.2l-3.3.7v-14.8H391v15.4l-8.8 1.8v-14h-2.8v14.6l-3.8.8c-.6 0-1.1.8-1.1 1.4v5.9-.2q.1 1.3 1.4 1.4h.3l3.2-.7v16.4l-3.8.8c-.6 0-1.1.8-1.1 1.4v5.7q.1 1.3 1.4 1.4h.3l3.2-.7v14.8h2.8v-15.4l8.8-1.8v14h2.8v-14.6l3.8-.7q1-.2 1-1.4v-5.8q0-1.3-1.3-1.4h-.2l-3.3.7v-16.4zm-15.4 3.1 8.8-1.8v16.4l-8.8 1.9zM343.2 3737.4c.7 0 1.2-.8 1.2-1.4v-5.8q-.2-1.3-1.4-1.4h-.2l-3.3.7v-14.8h-2.8v15.4l-8.8 1.8v-14H325v14.6l-3.9.8c-.6 0-1 .7-1 1.3v6-.2q0 1.3 1.3 1.4h.3l3.3-.7v16.4l-3.9.8q-1 .2-1 1.4v5.7q0 1.3 1.3 1.4h.3l3.3-.7v14.8h2.8v-15.4l8.8-1.8v14h2.8v-14.6l3.7-.7c.7 0 1.2-.8 1.2-1.4v-5.8q-.2-1.3-1.4-1.4h-.2l-3.3.7V3738zm-15.3 3 8.8-1.7v16.4l-8.8 1.9zM370.4 3774.6c.6 0 1.1-.8 1.1-1.4v-5.8q-.1-1.3-1.4-1.4h-.2l-3.2.7v-14.8h-2.8v15.4l-8.9 1.8v-14h-2.7v14.6l-3.9.8c-.6 0-1 .8-1 1.4v5.9-.2q0 1.3 1.3 1.4h.3l3.3-.7v16.4l-3.9.8c-.6 0-1 .8-1 1.4v5.7q0 1.3 1.3 1.4h.3l3.3-.7v14.8h2.7v-15.4l8.9-1.8v14h2.8v-14.6l3.7-.7c.6 0 1.1-.8 1.1-1.4v-5.8q-.1-1.3-1.4-1.4h-.2l-3.2.7v-16.4zm-15.4 3.1 8.9-1.8v16.4l-8.9 1.9zM397.6 3725c.6 0 1-.8 1-1.4v-5.8q0-1.3-1.3-1.4h-.2l-3.3.7v-14.8H391v15.4l-8.8 1.8v-14h-2.8v14.6l-3.8.8q-1 .2-1.1 1.3v6-.2q.1 1.3 1.4 1.4h.3l3.2-.7v16.4l-3.8.8q-1 .2-1.1 1.4v5.7q.1 1.3 1.4 1.4h.3l3.2-.7v14.8h2.8V3753l8.8-1.8v14h2.8v-14.6l3.8-.7c.6 0 1-.8 1-1.4v-5.8q0-1.3-1.3-1.4h-.2l-3.3.7v-16.4zm-15.4 3 8.8-1.7v16.4l-8.8 1.9zM343.2 2971.5q1.1-.3 1.2-1.4v-5.9q-.2-1.3-1.4-1.4h-.2l-3.3.7v-14.8h-2.8v15.4l-8.8 1.8v-14H325v14.6l-3.9.8c-.6 0-1 .8-1 1.4v5.9-.2q0 1.3 1.3 1.4h.3l3.3-.7v16.4l-3.9.8c-.6 0-1 .8-1 1.4v5.7q0 1.3 1.3 1.4h.3l3.3-.7v14.8h2.8v-15.4l8.8-1.8v14h2.8v-14.5l3.7-.7q1.1-.4 1.2-1.4v-5.9q-.2-1.3-1.4-1.4h-.2l-3.3.7v-16.3zm-15.3 3 8.8-1.8v16.4l-8.8 1.9zM370.4 3008.7q1-.3 1.1-1.4v-5.9q-.1-1.3-1.4-1.4h-.2l-3.2.7V2986h-2.8v15.4l-8.9 1.8v-14h-2.7v14.6l-3.9.8q-1 .3-1 1.4v5.9-.2q0 1.3 1.3 1.4h.3l3.3-.7v16.4l-3.9.8c-.6 0-1 .8-1 1.4v5.7q0 1.3 1.3 1.4h.3l3.3-.7v14.8h2.7v-15.4l8.9-1.7v14h2.8v-14.6l3.7-.7q1-.3 1.1-1.4v-5.9q-.1-1.3-1.4-1.4h-.2l-3.2.7v-16.3zm-15.4 3 8.9-1.8v16.4l-8.9 2zM397.6 2959q1-.2 1-1.3v-5.9q0-1.3-1.3-1.4h-.2l-3.3.7v-14.8H391v15.4l-8.8 1.8v-14h-2.8v14.6l-3.8.8c-.6 0-1.1.8-1.1 1.4v5.9-.2q.1 1.3 1.4 1.4h.3l3.2-.7v16.4l-3.8.8c-.6 0-1.1.8-1.1 1.4v5.7q.1 1.3 1.4 1.4h.3l3.2-.7v14.8h2.8v-15.4l8.8-1.8v14h2.8v-14.5l3.8-.7q1-.4 1-1.4v-5.9q0-1.3-1.3-1.4h-.2l-3.3.7v-16.3zm-15.4 3 8.8-1.8v16.4l-8.8 1.9zM343.2 2205.5q1.1-.3 1.2-1.4v-5.9q-.2-1.2-1.4-1.4h-.2l-3.3.7v-14.7h-2.8v15.3l-8.8 1.8v-14H325v14.6l-3.9.8q-1 .3-1 1.4v6-.2q0 1.2 1.3 1.4h.3l3.3-.7v16.3l-3.9.8q-1 .3-1 1.4v5.8q0 1.3 1.3 1.3h.3l3.3-.6v14.7h2.8v-15.3l8.8-1.8v14h2.8v-14.6l3.7-.7q1.1-.3 1.2-1.4v-5.9q-.2-1.2-1.4-1.3h-.2l-3.3.7v-16.4zm-15.3 3 8.8-1.7v16.3l-8.8 2zM370.4 2242.7q1-.3 1.1-1.4v-5.8q-.1-1.3-1.4-1.4h-.2l-3.2.7V2220h-2.8v15.3l-8.9 1.8v-14h-2.7v14.6l-3.9.8q-1 .3-1 1.4v6-.2q0 1.3 1.3 1.4h.3l3.3-.7v16.3l-3.9.8q-1 .3-1 1.4v5.8q0 1.3 1.3 1.4h.3l3.3-.7v14.7h2.7v-15.3l8.9-1.8v14h2.8v-14.6l3.7-.7q1-.3 1.1-1.4v-5.8q-.1-1.3-1.4-1.4h-.2l-3.2.7v-16.4zm-15.4 3 8.9-1.7v16.3l-8.9 2zM397.6 2193q1-.2 1-1.3v-5.9q0-1.2-1.3-1.4h-.2l-3.3.7v-14.7H391v15.3l-8.8 1.8v-14h-2.8v14.6l-3.8.8q-1 .3-1.1 1.4v6-.2q.1 1.2 1.4 1.4h.3l3.2-.7v16.3l-3.8.8q-1 .3-1.1 1.4v5.8q.1 1.3 1.4 1.3h.3l3.2-.6v14.7h2.8v-15.3l8.8-1.8v14h2.8v-14.6l3.8-.7q1-.3 1-1.4v-5.9q0-1.2-1.3-1.3h-.2l-3.3.7v-16.4zm-15.4 3 8.8-1.7v16.3l-8.8 2z" class="KeySig"/><path d="M2559.3 3424.4c-9.3-10.1-17.6-10.7-22.7-10.7-5.2 0-13.3.6-22.6 10.7-4.9 5.4-8.3 16-8.3 21.3q0 3.1 1.4 3.2c2.8 0 1.4-8.5 9.7-17a28 28 0 0 1 19.6-7.4h.4c2.4 0 12.2.1 19.5 7.4 8.4 8.5 7 17 9.7 17q1.5-.1 1.4-3.2c0-5.3-3.2-16-8.1-21.3m-29.6 19a6.9 6.9 0 1 0 13.7 0 6.9 6.9 0 0 0-13.7 0M2093 1880c-9.4-10.2-17.6-10.7-22.8-10.7s-13.3.5-22.6 10.7c-4.9 5.3-8.2 16-8.2 21.3q0 3 1.4 3.2c2.7 0 1.3-8.6 9.7-17a28 28 0 0 1 19.5-7.4h.4c2.4 0 12.2 0 19.6 7.4 8.3 8.4 6.9 17 9.7 17q1.4-.1 1.4-3.2c0-5.4-3.3-16-8.2-21.3m-29.5 19a6.9 6.9 0 1 0 13.7-.1 6.9 6.9 0 0 0-13.7 0M2559.3 3612.4c-9.3-10-17.6-10.7-22.7-10.7-5.2 0-13.3.6-22.6 10.7-4.9 5.4-8.3 16-8.3 21.4q0 3 1.4 3.1c2.8 0 1.4-8.5 9.7-17a28 28 0 0 1 19.6-7.4h.4c2.4 0 12.2.1 19.5 7.5 8.4 8.4 7 17 9.7 17q1.5-.2 1.4-3.2c0-5.4-3.2-16.1-8.1-21.4m-29.6 19a6.9 6.9 0 1 0 13.7 0 6.9 6.9 0 0 0-13.7 0M2093 2152.9c-9.4-10.1-17.6-10.7-22.8-10.7s-13.3.6-22.6 10.7c-4.9 5.4-8.2 16-8.2 21.3q0 3.1 1.4 3.2c2.7 0 1.3-8.5 9.7-17a28 28 0 0 1 19.5-7.4h.4c2.4 0 12.2.1 19.6 7.4 8.3 8.5 6.9 17 9.7 17q1.4-.1 1.4-3.2c0-5.3-3.3-16-8.2-21.3m-29.5 19a6.9 6.9 0 1 0 13.7 0 6.9 6.9 0 0 0-13.7 0" class="Fermata"/><path d="M2317 2109.2v-2h-7.4l5.8-16 .3.8s1 2.2 4.3 3q1 .3 1.9.2c5.4 0 10.9-5.5 13-13.5q.8-3.3.8-5.5c0-6.7-4.2-8.4-5.7-8.8l-1.3-.2c-3 0-6.1 2.6-7.8 4.3l-.3.3-.2-.4s-2-3.8-5.6-4.3h-1c-3.3 0-6.7 2.2-9.6 10.4l1.8 1c.4-1.4 1.4-4.5 2.6-6.1a5 5 0 0 1 2.7-2h.4q.5 0 .8.3.6.5.5 1.5c0 2.4-1.8 6.7-2.3 7.7l-9.8 27.3h-6v2zm2.8-17.3-.8-.1c-1.5-.6-1.9-2.4-1.9-4.3 0-3 1.1-6.6 1.2-6.8 1-3.8 3.8-8 6.4-9.4q1-.6 1.8-.6h.8q.7.3 1 1 .4 1 .4 2.3c0 2.6-1 6.2-1.6 8-1.2 3.8-3.7 8.5-6.2 9.7q-.6.3-1.1.2m-19.5-3.2q-.7 1.2-1.5 1.1h-.5q-.7-.4-.7-1.2.1-1.3.8-3.2c.2-.6.7-2.6 1-3.1.5-1.8 1.2-5.9 1.2-8.5l-.1-1.4q-.7-4-3.8-4a10 10 0 0 0-6.6 3.6l-.2.4-.2-.5s-1.6-3.5-4.3-3.5a8 8 0 0 0-6.5 3.4l-.3.4v-.5s-1.4-2.9-3.8-3.4h-1.4c-2.5 0-4 1.4-4.7 2.2-.6.7-2 3-2.6 5.2l1.4.8s1.7-5.3 3.9-5.3h.5q.9.4.8 1.6-.1 2-1.9 7l-4 11.9v.5l.1.6q.3.3.8.4h5.3c.2 0 .7 0 1-1.6q.8-3.3 1.5-5.4c.3-1.4 4-14.4 7.4-14.4q.4 0 .6.3.3.3.3 1-.2 2.9-2.2 9l-3 9.5v.4q0 .5.2.9.3.3.8.3h5.5c.3 0 .8-.1 1-1.2l.1-.7c2-13.9 5.2-18 7.5-19l.3-.1h.3q.4.3.4 1c0 1-.5 5-2.6 10.3q-1 2.4-1 4.4a6 6 0 0 0 1 3.6c.9 1.2 2.7 1.8 4 1.8 4.5 0 6.2-3.6 7.5-7q0-.4.2-.7l-1.7-.7s-1.1 2.6-1.8 3.8M2297.5 2362v-2h-7.5l5.8-15.9.3.7s1 2.2 4.3 3q1 .4 2 .3c5.4 0 10.8-5.6 12.9-13.6q.9-3.3.8-5.5c0-6.7-4.2-8.4-5.7-8.8l-1.3-.2c-3 0-6.1 2.6-7.8 4.3l-.3.3-.2-.4s-2-3.8-5.5-4.3h-1.1c-3.3 0-6.6 2.2-9.5 10.4l1.8 1c.4-1.4 1.3-4.5 2.5-6.1a5 5 0 0 1 2.7-1.9h.4l.8.2q.6.5.5 1.5c0 2.4-1.8 6.7-2.3 7.7l-9.8 27.3h-6v2zm2.7-17.3-.8-.1c-1.5-.6-1.8-2.4-1.8-4.3 0-3 1-6.6 1.1-6.8 1-3.8 3.8-8 6.4-9.4q1-.6 1.9-.6l.8.1q.5.2 1 .9.3 1 .3 2.3c0 2.6-1 6.2-1.5 8-1.3 3.8-3.8 8.5-6.3 9.7q-.6.3-1 .2m-19.6-3.2q-.7 1.3-1.5 1.1h-.5q-.7-.4-.6-1.2 0-1.3.8-3.2l.8-3.1c.6-1.8 1.3-5.8 1.3-8.5v-1.4q-.8-4-3.8-4a9 9 0 0 0-6.7 3.6l-.2.4-.2-.5s-1.5-3.5-4.2-3.5a8 8 0 0 0-6.6 3.4l-.3.4v-.5s-1.3-2.9-3.8-3.4h-1.4c-2.5 0-4 1.4-4.7 2.2-.5.7-2 3-2.6 5.3l1.5.8s1.6-5.4 3.8-5.4l.5.1q.8.3.8 1.5-.1 2.2-1.9 7l-4 11.9v.5q0 .3.2.6.3.4.8.4h5.2c.2 0 .7 0 1-1.6q.8-3.3 1.5-5.3c.4-1.5 4-14.5 7.4-14.5q.4 0 .6.3.3.3.3 1c0 1.8-1 5-2.2 9l-3 9.5v.4q0 .5.2.9.4.3.8.3h5.5c.4 0 .9-.1 1-1.2l.2-.7c2-13.9 5.1-18 7.4-19l.3-.1h.3q.4.3.5 1c0 1-.6 5-2.7 10.3q-.9 2.3-.9 4.4t1 3.6c.8 1.2 2.6 1.8 4 1.8 4.4 0 6.1-3.6 7.4-7q0-.3.2-.6l-1.7-.8s-1 2.6-1.8 3.8" class="Dynamic"/><path d="m2365.9 2069.3-9.1.8-.2 1.8h1.2q2.9 0 2.8 1.5 0 .7-.4 2.2l-6.4 21.7c-1 3.6-1 3.7-4.5 3.8l-.2 1.8h12l.2-1.8h-.6q-3.4.1-3.2-1.3l.6-2.5 2.4-8.2c1.4 3.5 2.7 4.5 6 4.5 8 0 13-8.8 13-16.1q0-3.6-1.7-5.6a7 7 0 0 0-5.2-2.6q-4 0-7.5 4.3zm5.1 2.7q3.6.2 3.8 4.3c0 2.8-.9 6.2-2.4 9.3q-2.4 5.6-6.4 5.5c-2.4 0-4.2-2-4.2-4.6 0-4.5 3.6-14.5 9.2-14.5m22.5-14.9a2.7 2.7 0 1 0 0 5.4 2.7 2.7 0 0 0 0-5.4m1 12.2-9.7.8-.2 1.8h1.2q3 0 2.9 1.5 0 .6-.5 2.2l-2.9 9.8c-1 3.2-1 3.9-1 5 0 1.8 1.4 3.1 3.3 3.1 4.3 0 7.3-4.4 9.4-7.7l-1.6-.8q-4 6-6 6-.8 0-.9-1 0-.7.6-2.8zm19.6-2.5h2l7.9-4.7q1.3-.8 1.3-2-.2-1.6-1.8-1.7-.9-.1-2.5 1.4zm11 3.3h-4.3l-2.3 8c-2 7-6.7 12.6-10.2 12.6-1.2 0-2.2-1-2.2-2.1q0-1 .6-2.9l4.9-16.4-9.7.8-.1 1.8h1.2q2.9-.1 2.8 1.6l-.4 2.1-2 6.8c-1.6 5-1.6 5-1.6 6.5 0 2.8 2 4.6 4.8 4.6 3.5 0 6.3-2 9.3-6.7a11 11 0 0 0-.6 3.5q.2 3.2 3.2 3.3c3 0 5.5-2 9-7.5l-1.5-1q-3.7 5.6-5.5 5.7-.7 0-.9-1.2l.6-3zm33.7-14.2-10 .8-.2 1.8h1.5q3-.1 2.9 1.6l-.5 2.2-6.3 21.4a19 19 0 0 0-1.3 6.4q.1 3.3 3.2 3.5 4.9 0 9.4-7.8l-1.6-.8q-4 6-6.2 6-.8 0-.8-1c0-.7 0-.7.6-2.8zm18.8 31c-3 3-5 4.2-7.7 4.2-3 0-4.9-2-4.9-5.2l.1-1.7a44 44 0 0 0 9.1-2.7q6-2.6 6-7.1c0-3.1-2.3-5.2-6-5.2-7.2 0-13.8 7.4-13.8 15.6 0 5.4 3.2 8.7 8.6 8.7a12 12 0 0 0 9.8-5.2zm-12.2-4.7c1.1-6.7 4.2-11 7.9-11q2.6.2 2.7 2.8 0 3.8-4.3 6.1c-1.8 1-3 1.5-6.3 2.2m29-13-9.1.7-.2 1.8h1.2q2.9 0 2.8 1.5.1.6-.4 2.2l-5.1 17.2h4.3l2-7c1.4-4.3 2-5.7 3.8-8.3 2.1-3.2 4.8-5.2 7-5.2a2 2 0 0 1 2 2q0 1.4-.8 3.5l-2.7 7.8q-.9 2.8-.9 4.2c0 2.2 1.5 3.8 3.5 3.8q5-.1 9.2-7.5l-1.5-1q-3.8 6-6.2 6-.8-.1-.9-1c0-.6.2-1.2 1-3.4l2.3-6.9a18 18 0 0 0 1.2-5.7c0-2.6-2.1-4.8-4.8-4.8q-4.4 0-9.2 6.8zm32.6-7.5h-4.4l-2.4 8.3h-4.7l-.7 2.3h4.7l-3.8 12.6c-.7 2.6-1 3.6-1 4.8 0 2.1 1.6 3.8 3.7 3.8 2.3 0 5.1-1.6 6.9-4l2.5-3.8-1.5-1c-3.2 4.8-4.6 6.1-6.2 6.1q-1.1-.1-1.2-1.4 0-.5.2-1.2l4.7-15.9h5.5l.7-2.3h-5.5zm17.3 7.5a13 13 0 0 0-9.2 4.3 15 15 0 0 0-4.2 10.6c0 5.8 3.4 9.4 8.9 9.4q5.4 0 9-4.1c2.8-3 4.3-7 4.3-10.7 0-5.2-4-9.5-8.8-9.5m-.3 2q4.3.1 4.4 6c0 2.7-1 6.7-2.4 9.4q-2.3 5.1-6.2 5-4.4-.1-4.4-5.3c0-4.7 2.4-15.2 8.6-15.2M2346.3 2322.1l-9 .8-.3 1.8h1.2q3 0 2.9 1.5 0 .7-.5 2.2l-6.4 21.7c-1 3.6-1 3.7-4.4 3.8l-.2 1.8h12l.2-1.8h-.6c-2.4 0-3.2-.3-3.2-1.3l.5-2.5 2.5-8.1c1.3 3.4 2.6 4.4 6 4.4 8 0 13-8.8 13-16.1 0-2.5-.6-4.1-1.7-5.6a7 7 0 0 0-5.3-2.6q-4 0-7.4 4.3zm5.2 2.7c2.2 0 3.7 1.7 3.7 4.4s-.8 6.1-2.3 9.2q-2.6 5.6-6.4 5.5c-2.5 0-4.2-2-4.2-4.6 0-4.5 3.5-14.5 9.2-14.5m22.5-14.9a2.7 2.7 0 0 0-.1 5.4c1.6 0 2.7-1.2 2.7-2.7s-1.1-2.7-2.6-2.7m.8 12.2-9.6.8-.1 1.8h1.2q2.9 0 2.8 1.5 0 .6-.5 2.2l-2.8 9.8c-1 3.2-1.2 3.9-1.2 5 0 1.8 1.5 3.1 3.5 3.1 4.3 0 7.2-4.4 9.3-7.7l-1.6-.8q-4 6-6 6-.8 0-.8-1 0-.7.6-2.8zm19.5-2.4h2l7.9-4.8q1.3-.9 1.3-2-.1-1.6-1.7-1.7c-.8 0-1.4.3-2.6 1.5zm11 3.2h-4.3l-2.3 8c-2 7-6.7 12.6-10.2 12.6-1.2 0-2.2-1-2.2-2.1q0-1 .6-2.9l4.9-16.4-9.7.8-.1 1.8h1.2q2.9-.1 2.8 1.6l-.4 2.1-2 6.8c-1.6 5-1.6 5-1.6 6.5 0 2.8 2 4.6 4.8 4.6 3.5 0 6.3-2 9.3-6.6a11 11 0 0 0-.6 3.4q.2 3.2 3.2 3.3c3 0 5.5-2 9-7.5l-1.5-1q-3.7 5.6-5.5 5.7-.7 0-.8-1.2 0-.7.5-3zm33.7-14.1-10 .7-.2 1.8h1.6q2.9 0 2.8 1.6l-.4 2.2-6.4 21.4a20 20 0 0 0-1.3 6.4q.1 3.3 3.2 3.5 4.9 0 9.4-7.8l-1.6-.8q-4 6-6.1 6-1 0-1-1c0-.6 0-.7.7-2.8zm18.9 31c-3 3-5.1 4.2-7.8 4.2q-4.7-.2-4.8-5.2v-1.7c6-1.4 6.9-1.7 9.2-2.7q6-2.6 6-7.1c0-3-2.4-5.2-6-5.2-7.3 0-13.9 7.4-13.9 15.6 0 5.4 3.3 8.7 8.7 8.7a12 12 0 0 0 9.8-5.2zm-12.3-4.6c1.2-6.8 4.2-11 8-11q2.6 0 2.7 2.8-.1 3.7-4.3 6a18 18 0 0 1-6.4 2.2m29-13-9 .7-.3 1.8h1.2q3 0 2.9 1.5 0 .6-.5 2.2l-5 17.2h4.3l2-7c1.3-4.3 2-5.7 3.7-8.3 2.2-3.2 4.8-5.2 7-5.2a2 2 0 0 1 2 2q0 1.3-.8 3.6l-2.6 7.8c-.7 2-1 3-1 4.1 0 2.2 1.6 3.8 3.5 3.8q5-.1 9.2-7.5l-1.4-1q-3.9 6-6.3 6-.7-.1-.8-1c0-.6.1-1.2 1-3.4l2.3-6.9a18 18 0 0 0 1.2-5.6c0-2.7-2.2-4.9-4.8-4.9q-4.4 0-9.3 6.8zm32.5-7.5h-4.3l-2.5 8.3h-4.7l-.7 2.3h4.7l-3.7 12.6c-.8 2.6-1 3.6-1 4.8 0 2.1 1.6 3.8 3.6 3.8 2.4 0 5.2-1.6 6.9-4l2.5-3.8-1.5-1c-3.2 4.8-4.5 6.1-6.2 6.1q-1 0-1.1-1.4l.1-1.1 4.8-16h5.4l.7-2.3h-5.4zm17.3 7.5a13 13 0 0 0-9.2 4.3 15 15 0 0 0-4.2 10.6c0 5.8 3.5 9.4 8.9 9.4q5.4 0 9.1-4.1c2.7-3 4.3-7 4.3-10.7 0-5.2-4-9.5-8.9-9.5m-.2 2q4.2.1 4.3 6c0 2.7-1 6.7-2.3 9.4q-2.4 5.1-6.2 5-4.5-.1-4.5-5.3c0-4.7 2.4-15.2 8.7-15.2" class="Expression"/><path fill-rule="evenodd" d="M1939.2 497.8h207.4v12.4h-207.4zM1939.2 479.2h207.4v12.4h-207.4zM1634.4 2005l136.4 6.2v12.4l-136.4-6.2zM1634.4 1986.4l136.4 6.2v12.4l-136.4-6.2zM734 479.2h207.4v12.4H734zM734 460.6h207.4V473H734zM996.3 2011.2h136.3v12.4H996.3zM996.3 1992.6h136.3v12.4H996.3zM1280.6 479.2H1488v12.4h-207.4zM1280.6 460.6H1488V473h-207.4zM817.7 2011.2h136.4v12.4H817.7zM817.7 1992.6h136.4v12.4H817.7zM639.2 2011.2h136.4v12.4H639.2zM639.2 1992.6h136.4v12.4H639.2zM2212.5 497.8h207.4v12.4h-207.4zM2212.5 479.2h207.4v12.4h-207.4zM2194.2 1263.8h214.7v12.4h-214.7zM2194.2 1245.2h214.7v12.4h-214.7zM460.7 1263.8h214.7v12.4H460.7zM460.7 1245.2h214.7v12.4H460.7zM2477.2 1263.8h214.7v12.4h-214.7zM2477.2 1245.2h214.7v12.4h-214.7zM2485.8 497.8h207.4v12.4h-207.4zM2485.8 479.2h207.4v12.4h-207.4zM1842.7 1874.7l136.3 18.6v12.5l-136.3-18.6zM1842.7 1893.3l136.3 18.6v12.5l-136.3-18.6zM460.7 479.2H668v12.4H460.7zM460.7 460.6H668V473H460.7zM1455.9 2011.2h136.3v12.4H1456zM1455.9 1992.6h136.3v12.4H1456zM1007.3 479.2h207.4v12.4h-207.4zM1007.3 460.6h207.4V473h-207.4zM1277.4 2011.2h136.3v12.4h-136.4zM1277.4 1992.6h136.3v12.4h-136.4zM1911.2 1263.8h214.7v12.4h-214.7zM1911.2 1245.2h214.7v12.4h-214.7zM743.7 1263.8h214.7v12.4H743.7zM743.7 1245.2h214.7v12.4H743.7zM2122.7 2826.9h101.9v12.3h-102zM2177.5 2808.3h47v12.3h-47zM1665.9 497.8h207.4v12.4H1666zM1665.9 479.2h207.4v12.4H1666zM2591.3 2048.4h102v12.4h-102zM2646.1 2029.8h47.1v12.4h-47.1zM460.7 2011.2H597v12.4H460.7zM460.7 1992.6H597v12.4H460.7zM1026.7 1263.8h214.7v12.4h-214.7zM1026.7 1245.2h214.7v12.4h-214.7zM1309.7 1263.8h214.7v12.4h-214.7zM1309.7 1245.2h214.7v12.4h-214.7zM1628.2 1263.8h214.7v12.4h-214.7zM1628.2 1245.2h214.7v12.4h-214.7zM1652.9 3834.6l436.3-24.8v12.5l-436.3 24.8zM1969 566h207.4v12.4h-207.5zM1969 584.6h207.4V597h-207.5zM2231.3 3834.6l147-18.6v12.5l-147 18.6zM1941 1369.2h214.6v12.4H1941zM1941 1387.8h214.6v12.4H1941zM1664.1 2135.3h136.4v12.4h-136.4zM1664.1 2153.9h136.4v12.4h-136.4zM1485.6 2135.3H1622v12.4h-136.4zM1485.6 2153.9H1622v12.4h-136.4zM1307.1 2135.3h136.4v12.4H1307zM1307.1 2153.9h136.4v12.4H1307zM1037 590.8h207.5v12.4H1037zM1037 609.4h207.5V622H1037zM1026 2166.3l136.4 6.2v12.4l-136.4-6.2zM1026 2184.9l136.4 6.2v12.4l-136.4-6.2zM847.5 2135.3h136.4v12.4H847.5zM847.5 2153.9h136.4v12.4H847.5zM669 2160.1h136.3v12.4H669zM669 2178.7h136.3v12.4H669zM490.4 2160.1h136.4v12.4H490.4zM490.4 2178.7h136.4v12.4H490.4zM2507 1369.2h214.6v12.4H2507zM2507 1387.8h214.6v12.4H2507zM2224 1369.2h214.6v12.4H2224zM2224 1387.8h214.6v12.4H2224zM460.7 3847l436.3-18.6v12.5l-436.3 18.6zM1310.3 621.8l207.5 6.2v12.5l-207.5-6.2zM1310.3 640.5l207.5 6.2V659l-207.5-6.2zM1658 1369.2h214.6v12.4H1658zM1658 1387.8h214.6v12.4H1658zM1339.4 1332h214.8v12.4h-214.8zM1339.4 1350.6h214.8v12.4h-214.8zM1056.4 1332h214.8v12.4h-214.8zM1056.4 1350.6h214.8v12.4h-214.8zM773.4 1332h214.8v12.4H773.4zM773.4 1350.6h214.8v12.4H773.4zM1695.6 566h207.5v12.4h-207.5zM1695.6 584.6h207.5V597h-207.5zM490.4 1332h214.8v12.4H490.4zM490.4 1350.6h214.8v12.4H490.4zM2515.5 566H2723v12.4h-207.5zM2515.5 584.6H2723V597h-207.5zM2242.2 566h207.5v12.4h-207.5zM2242.2 584.6h207.5V597h-207.5zM2268.2 2284.1l165-6.2v12.4l-165 6.2zM1039 3847l436.3-18.6v12.5l-436.2 18.6zM490.4 590.8H698v12.4H490.4zM490.4 609.4H698V622H490.4zM2533 3025.3l160.2-6.2v12.4l-160.2 6.2zM2327 3025.3l160.3-6.2v12.4l-160.3 6.2zM2019.7 3050l160.2-6.1v12.4l-160.2 6.2zM1813.7 3050l160.3-6.1v12.4l-160.3 6.2zM1564.3 3068.6l147-18.6v12.5l-147 18.6zM1371.5 3068.6l147-18.6v12.5l-147 18.6zM1122 3081l147.1-18.6v12.5l-147 18.6zM929.3 3081l147-18.6v12.5l-147 18.6zM666.7 3025.3l160.2-6.2v12.4l-160.2 6.2zM460.7 3025.3 621 3019v12.4l-160.3 6.2zM763.7 590.8h207.5v12.4H763.7zM763.7 609.4h207.5V622H763.7zM2483.6 2284.1l165-6.2v12.4l-165 6.2zM1842.7 2135.3H1979v12.4h-136.3zM1842.7 2153.9H1979v12.4h-136.3z" class="Beam"/><path fill="none" stroke="#000" stroke-linejoin="bevel" stroke-width="3" d="m1277.4 2093 714-14.3-714-14.3" class="HairpinSegment"/><path d="M489.8 3382.1c0-3.9-.7-5.7-2.8-7.5q-3.5-2.6-10.7-2.7c-8.2 0-13.6 3-13.6 7.8 0 2.6 2 4.5 4.8 4.5s5-1.7 5-4a4 4 0 0 0-.9-2.2c-.5-.7-.5-.7-.5-1 0-1 2-2 4.3-2 3.7 0 5 1.6 5 5.8v3q-5.8 1.1-11.4 3c-5.6 1.8-8 4.3-8 8.3 0 4.4 3.4 7 9.3 7 5.1 0 8.3-1.1 11.4-4.3q1.6 4.3 6.4 4.3c3.4 0 6.6-2.4 6.6-5q0-1-.9-1-.5 0-1.2.5t-1.1.4c-1.4 0-1.7-.8-1.7-4.3zm-9.4 5v3.4c0 4.6-2 7.5-5.5 7.5q-3.6-.2-3.8-4.1c0-3.3 1.8-5 6.1-6zM511 3357l-14.4.9v3h1.1c3.7 0 4 .3 3.9 5.6v29.3q0 1.1-.4 1.6c-.4.5-1.5.7-4.2.7h-.2v3.1h18.7v-3h-.4c-3.6-.2-4.1-.5-4.1-2.6zm21.1 0-14.4.9v3h1.1c3.7 0 4 .3 3.9 5.6v29.3q0 1.1-.4 1.6c-.4.5-1.5.7-4.2.7h-.2v3.1h18.7v-3h-.4c-3.6-.2-4-.5-4-2.6zm36.6 25.1c0-3.9-.7-5.7-2.8-7.5q-3.5-2.6-10.7-2.7c-8.3 0-13.7 3-13.7 7.8 0 2.6 2 4.5 4.9 4.5 2.8 0 5-1.7 5-4a4 4 0 0 0-1-2.2c-.5-.7-.5-.7-.5-1 0-1 2-2 4.4-2 3.7 0 5 1.6 5 5.8v3q-5.8 1.1-11.4 3c-5.6 1.8-8 4.3-8 8.3 0 4.4 3.4 7 9.3 7 5.1 0 8.2-1.1 11.4-4.3q1.6 4.3 6.4 4.3c3.4 0 6.6-2.4 6.6-5q0-1-1-1-.4 0-1.1.5c-.6.3-.7.4-1.2.4-1.3 0-1.6-.8-1.6-4.3zm-9.4 5v3.4c0 4.6-2.1 7.5-5.5 7.5q-3.7-.2-3.9-4.1c0-3.3 1.9-5 6.2-6zm29.6-14.3-13.4.4v3.1h.9c3.7 0 3.9.3 3.8 5.8v13.7q0 1.1-.3 1.6-.5.7-4.2.7h-.2v3.1h20v-3h-1.3c-4-.1-4.5-.4-4.5-2.6v-4.2q.6-13.7 7-15.5-1 1.3-1 2.8c0 2.6 2 4.4 4.6 4.4a5 5 0 0 0 5.1-5.1c0-3.5-2.7-6-6.6-6q-6.8 0-10 8zm32.5 22.6c-3.2 0-3.9-.3-3.9-1.8s1-2 4.6-2h1c4 0 6.2-.3 8.5-1.4a9 9 0 0 0 5.5-8.3c0-2.8-1-4.6-3.6-6.8q1.1-1.7 2.3-1.7.2 0 .3.3v.3c0 1.3 1.5 2.7 3.2 2.7 2.1 0 3.7-1.7 3.7-3.9s-1.8-3.9-4.4-3.9c-2.8 0-5 1.5-7.7 4.8q-3.5-1.8-8-1.8c-8.3 0-14.2 4.3-14.2 10.3q0 6.1 6.6 8.4-7 1.4-7 6 .1 4 5.5 5.5c-4 .6-6.4 2.5-6.4 5.3q0 6 14.7 6c11.1 0 17.4-3.6 17.4-10 0-3.4-2-6.2-5-7.1-2-.7-4.6-1-9-1zm1.5-20.2q4.5 0 4.4 6.9-.1 6.6-4.4 6.8c-4 0-4.6-4-4.6-7.2q0-6.5 4.6-6.5m2.3 28.7c3.7 0 4.5.1 5.5.8q.8.6.9 2 0 3.6-9.2 3.6-7.1-.1-7.3-3.5 0-2 2.2-3zm24.1-12.9a5.6 5.6 0 0 0-5.6 5.7c0 3 2.5 5.6 5.5 5.6 3.2 0 5.7-2.5 5.7-5.6 0-3.2-2.5-5.7-5.6-5.7" class="GradualTempoChangeSegment"/><path fill="none" stroke="#000" stroke-dasharray="22.3228,34.3205" stroke-miterlimit="2" stroke-width="3.7" d="M669.3 3399.3h2061.5" class="GradualTempoChangeSegment"/><path d="m1285.1 1815.2-.6 2.8c-.5 2.2-.8 2.9-1.3 3.2s-.6.4-4.1.4h-10.6c2-1.6 3.3-2.7 5.5-4.1a41 41 0 0 0 11-8.3c1.8-2.4 2.9-5.4 2.9-8 0-5.8-5.8-10.3-13.5-10.3-7.5 0-13.3 4.9-13.3 11.1 0 3.9 2.2 6.4 5.5 6.4q4.4-.2 4.6-4.7c0-2.4-1-3.7-3.5-5q-1-.3-1-1c0-1.8 3-3.6 5.8-3.6q5.8.1 6 6.4c0 4.6-1.7 7.8-7.5 14-6.2 6.6-8.3 9-11 13v2.6q1.8-.2 2.8-.2h20.6c1 0 1.8 0 3.4.2l1.3-14.9zm13 5.1a5.2 5.2 0 1 0 0 10.4 5.2 5.2 0 0 0 0-10.4" class="VoltaSegment"/><path fill="none" stroke="#000" stroke-miterlimit="2" stroke-width="2.7" d="M1245 1829.9v-54.6h772.6" class="VoltaSegment"/><path d="M462.3 1791h-1.9c-3.4 2.5-7.4 3.6-13.9 3.7v3.1h2.3c4.9 0 5 .1 4.9 4.6v19.5c0 3.4 0 3.6-.4 4.2s-1.6.8-4.6.8H447v3h22v-3h-1.8c-3 0-4-.2-4.5-.8s-.4-.8-.4-4.1zm18.8 29.3a5.2 5.2 0 1 0 0 10.4 5.2 5.2 0 0 0 0-10.4" class="VoltaSegment"/><path fill="none" stroke="#000" stroke-miterlimit="2" stroke-width="2.7" d="M431.1 1829.9v-54.6h789.3v54.6" class="VoltaSegment"/><path d="M2739.2 230.7c-1.3 1.3-1.4 1.6-1.4 2.5q.1 1.8 2 2c1.2 0 2.3-1 2.3-2.2l-.2-.9q2.6-2 6.2-2 6.1 0 6.2 9-.1 10-6.8 10.1c-2.5 0-4.8-1.1-4.8-2.3q0-.4.6-.7 3.2-1.3 3-4c0-2.8-1.9-4.5-4.7-4.5-3.2 0-5.3 2.2-5.3 5.6 0 5.5 5 9 12.6 9 9 0 15.2-5.4 15.2-13.6 0-7.1-5.8-12.4-13.7-12.4-2.6 0-4.3.4-8 2l.9-7q3.8.8 6.9.8c4.6 0 8.4-1.5 10.4-4.2 1-1.4 1.8-3.4 1.8-4.6q0-.6-.4-.6l-.9.1q-3.1.8-10 .8c-4.5 0-7.3-.2-10.7-1-.2 4.7-.2 5.1-.9 14.1z" class="Page"/><path d="M184.8 1332a64 64 0 0 0 19-46.7c0-32.8-14-65.9-14-86.4 0-22 12.6-42.4 13.3-43.1v-.7q0-.6-.3-1.1-.7-.2-1.5.7c-.3.4-19.7 19.7-19.7 49.2 0 31.7 12.5 54 12.5 95.4 0 7.9-3.2 20.5-12.2 31.6-.3 0-.3.7-.3 1.1-.4.4 0 .7.3 1a54 54 0 0 1 12.2 31.7c0 41.4-12.5 63.7-12.5 95.3 0 29.2 19.4 49 19.7 49.3q.7 1.1 1.5.7c.3-.3.7-.7.3-1v-.8a89 89 0 0 1-13.3-43.1c0-20.5 14-53.6 14-86.3 0-26.3-12.5-40-19-46.8M184.8 2104.2c6.5-7 19-21.5 19-48.3 0-34-14-68.2-14-89.4 0-22.7 12.6-44 13.3-44.6v-.8q0-.6-.3-1-.7-.2-1.5.6c-.3.4-19.7 20.5-19.7 51 0 32.8 12.5 55.8 12.5 98.6 0 8.2-3.2 21.3-12.2 32.8-.3 0-.3.7-.3 1.1-.4.4 0 .8.3 1.1a57 57 0 0 1 12.2 32.8c0 42.8-12.5 65.9-12.5 98.6a80 80 0 0 0 19.7 51q.7 1.2 1.5.7c.3-.3.7-.7.3-1v-.8a94 94 0 0 1-13.3-44.7c0-21.2 14-55.4 14-89.3a66 66 0 0 0-19-48.4M184.8 566a64 64 0 0 0 19-46.7c0-32.8-14-65.9-14-86.3 0-22 12.6-42.5 13.3-43.2v-.7q0-.6-.3-1-.7-.1-1.5.6c-.3.4-19.7 19.8-19.7 49.3 0 31.6 12.5 54 12.5 95.3 0 7.9-3.2 20.5-12.2 31.7-.3 0-.3.6-.3 1-.4.4 0 .8.3 1.1a54 54 0 0 1 12.2 31.6c0 41.4-12.5 63.7-12.5 95.4 0 29.1 19.4 48.9 19.7 49.2q.7 1.2 1.5.8c.3-.4.7-.8.3-1.1v-.7a89 89 0 0 1-13.3-43.2c0-20.5 14-53.6 14-86.3 0-26.2-12.5-40-19-46.8M184.8 2876.5a64 64 0 0 0 19-46.8c0-32.8-14-65.9-14-86.3 0-22 12.6-42.5 13.3-43.2v-.7q0-.6-.3-1-.7-.2-1.5.6c-.3.4-19.7 19.8-19.7 49.3 0 31.6 12.5 54 12.5 95.3 0 8-3.2 20.5-12.2 31.7-.3 0-.3.7-.3 1-.4.4 0 .8.3 1.1a54 54 0 0 1 12.2 31.7c0 41.3-12.5 63.6-12.5 95.3 0 29.1 19.4 49 19.7 49.3q.7 1.1 1.5.7c.3-.4.7-.7.3-1v-.8a89 89 0 0 1-13.3-43.2c0-20.5 14-53.6 14-86.3 0-26.2-12.5-40-19-46.7M184.8 3642.4a64 64 0 0 0 19-46.7c0-32.8-14-65.9-14-86.3 0-22 12.6-42.5 13.3-43.2v-.7q0-.6-.3-1.1-.7-.2-1.5.7c-.3.4-19.7 19.8-19.7 49.3 0 31.6 12.5 54 12.5 95.3 0 7.9-3.2 20.5-12.2 31.7q-.4.2-.3 1c-.4.4 0 .8.3 1a54 54 0 0 1 12.2 31.7c0 41.4-12.5 63.7-12.5 95.3 0 29.2 19.4 49 19.7 49.3q.7 1.2 1.5.8c.3-.4.7-.8.3-1.1v-.7a89 89 0 0 1-13.3-43.2c0-20.5 14-53.6 14-86.3 0-26.3-12.5-40-19-46.8" class="Bracket"/></svg>